<?xml version="1.0" encoding="UTF-8"?>
<svg xmlns="http://www.w3.org/2000/svg" xmlns:xlink="http://www.w3.org/1999/xlink" width="30pt" height="35pt" viewBox="0 0 30 35" version="1.1">
<g id="surface1">
<path style=" stroke:none;fill-rule:nonzero;fill:rgb(0%,0%,0%);fill-opacity:1;" d="M 8.191406 0.015625 C 7.8125 0.113281 7.703125 0.1875 7.316406 0.617188 C 7.148438 0.800781 6.964844 0.980469 6.910156 1.015625 C 6.828125 1.0625 6.746094 1.078125 6.445312 1.097656 C 5.792969 1.140625 5.574219 1.207031 5.382812 1.429688 C 5.277344 1.550781 4.992188 2.09375 4.886719 2.367188 C 4.796875 2.59375 4.691406 3 4.640625 3.28125 C 4.601562 3.511719 4.589844 4.558594 4.625 4.90625 L 4.648438 5.125 L 4.5 5.234375 C 4.421875 5.296875 4.253906 5.4375 4.132812 5.546875 C 4.007812 5.65625 3.660156 5.929688 3.359375 6.15625 C 2.742188 6.617188 2.460938 6.855469 1.917969 7.386719 C 1.511719 7.777344 1.324219 8.023438 1.136719 8.40625 L 1.023438 8.636719 L 0.933594 9.453125 C 0.835938 10.300781 0.539062 13.046875 0.390625 14.492188 C 0.34375 14.953125 0.238281 15.960938 0.152344 16.734375 C 0.0234375 17.972656 0.00390625 18.207031 0.0117188 18.675781 C 0.015625 19.164062 0.0195312 19.21875 0.0742188 19.320312 C 0.160156 19.476562 0.390625 19.695312 0.585938 19.792969 C 0.972656 20 2.402344 20.386719 4.5625 20.878906 C 6.53125 21.324219 7.554688 21.601562 8.335938 21.894531 C 8.566406 21.980469 8.589844 22 8.566406 22.042969 C 8.523438 22.121094 8.539062 22.292969 8.59375 22.386719 C 8.644531 22.460938 8.765625 22.546875 9.121094 22.738281 C 9.230469 22.800781 9.1875 22.679688 9.734375 24.390625 C 10.535156 26.882812 11.84375 31.371094 12.464844 33.757812 C 12.539062 34.039062 12.625 34.375 12.65625 34.492188 C 12.726562 34.757812 12.8125 34.894531 12.949219 34.960938 C 13.070312 35.015625 13.222656 35.007812 14.078125 34.902344 C 16.03125 34.660156 17.691406 34.238281 18.792969 33.695312 C 19.78125 33.210938 20.398438 32.648438 20.546875 32.089844 C 20.570312 32.007812 20.589844 31.730469 20.601562 31.375 L 20.617188 30.804688 L 21.136719 30.542969 C 21.421875 30.398438 21.808594 30.191406 21.996094 30.082031 C 22.183594 29.972656 22.347656 29.886719 22.359375 29.886719 C 22.371094 29.886719 22.554688 30.058594 22.769531 30.269531 C 23.144531 30.636719 23.171875 30.65625 23.367188 30.726562 C 23.539062 30.785156 23.640625 30.800781 23.914062 30.8125 C 24.457031 30.828125 24.863281 30.730469 25.523438 30.40625 C 26.339844 30.007812 27.144531 29.421875 28.207031 28.449219 C 28.71875 27.980469 29.558594 27.117188 29.632812 26.980469 C 29.695312 26.867188 29.695312 26.71875 29.632812 26.628906 C 29.609375 26.589844 29.265625 26.136719 28.875 25.628906 C 25.535156 21.289062 22.855469 17.519531 21.179688 14.792969 C 20.933594 14.394531 20.472656 13.648438 20.15625 13.136719 C 18.871094 11.078125 18.242188 10.046875 17.6875 9.078125 C 17.363281 8.515625 16.996094 7.855469 16.996094 7.835938 C 16.996094 7.828125 17.152344 7.914062 17.339844 8.027344 C 17.527344 8.140625 18.5 8.722656 19.5 9.320312 L 21.324219 10.402344 L 21.628906 10.703125 C 22.195312 11.261719 22.832031 12.160156 23.546875 13.425781 C 23.792969 13.855469 24.34375 14.9375 24.507812 15.308594 C 24.597656 15.507812 24.597656 15.511719 24.550781 15.613281 C 24.523438 15.671875 24.46875 15.769531 24.421875 15.835938 C 24.300781 16.011719 24.320312 16.195312 24.5 16.691406 C 24.695312 17.21875 24.980469 17.679688 25.308594 18 C 25.457031 18.144531 25.484375 18.160156 25.675781 18.199219 C 25.960938 18.261719 26.488281 18.257812 26.789062 18.195312 C 27.511719 18.050781 28.324219 17.605469 28.902344 17.035156 C 29.5 16.453125 29.984375 15.589844 29.988281 15.117188 C 29.988281 15.074219 29.964844 14.976562 29.929688 14.898438 C 29.898438 14.816406 29.816406 14.589844 29.75 14.394531 C 29.578125 13.914062 29.355469 13.46875 29.199219 13.296875 C 29.039062 13.125 28.875 13.054688 28.542969 13.023438 L 28.308594 13 L 28.160156 12.660156 C 27.5625 11.296875 26.738281 9.929688 25.167969 7.710938 C 24.425781 6.660156 24.117188 6.304688 23.625 5.929688 C 21.652344 4.40625 18.941406 2.679688 17.144531 1.792969 C 16.261719 1.359375 16.132812 1.328125 15.273438 1.328125 C 14.773438 1.328125 14.648438 1.339844 14.289062 1.402344 C 13.363281 1.570312 12.800781 1.679688 12.128906 1.820312 C 11.738281 1.902344 11.382812 1.976562 11.335938 1.984375 C 11.257812 2 11.242188 1.984375 11.089844 1.785156 C 10.328125 0.804688 9.71875 0.34375 8.859375 0.09375 C 8.617188 0.0234375 8.304688 -0.0117188 8.191406 0.015625 Z M 6.382812 15.699219 C 6.664062 16.328125 6.769531 16.597656 6.742188 16.597656 C 6.71875 16.597656 6.605469 16.574219 6.488281 16.546875 C 6.242188 16.484375 5.367188 16.308594 5.164062 16.28125 C 5.0625 16.265625 5.035156 16.253906 5.046875 16.21875 C 5.117188 15.976562 5.195312 15.382812 5.273438 14.574219 C 5.320312 14.058594 5.363281 13.667969 5.386719 13.566406 C 5.402344 13.492188 5.515625 13.738281 6.382812 15.699219 Z M 6.382812 15.699219 "/>
</g>
</svg>
