<?xml version="1.0" encoding="UTF-8"?>
<svg xmlns="http://www.w3.org/2000/svg" xmlns:xlink="http://www.w3.org/1999/xlink" width="30pt" height="45pt" viewBox="0 0 30 45" version="1.1">
<g id="surface1">
<path style=" stroke:none;fill-rule:nonzero;fill:rgb(0%,0%,0%);fill-opacity:1;" d="M 7.773438 0.425781 C 7.765625 0.664062 7.738281 1.28125 7.71875 1.792969 C 7.527344 6.453125 6.871094 11.527344 5.722656 17.226562 C 5.070312 20.453125 4.503906 22.9375 2.890625 29.617188 C 1.851562 33.910156 1.28125 36.371094 0.738281 38.925781 C 0.449219 40.28125 0 42.578125 0 42.6875 C 0 42.757812 -0.0195312 42.75 0.703125 42.90625 C 1.285156 43.027344 1.636719 43.105469 4.386719 43.699219 C 5.203125 43.875 6.152344 44.082031 6.503906 44.15625 C 6.851562 44.230469 7.875 44.453125 8.773438 44.644531 C 9.671875 44.84375 10.4375 45 10.476562 45 C 10.511719 45 10.539062 44.980469 10.539062 44.949219 C 10.539062 44.921875 10.59375 44.414062 10.660156 43.820312 C 10.890625 41.765625 11.03125 40.273438 11.699219 32.890625 C 12.277344 26.507812 12.664062 23.203125 13.238281 19.722656 C 13.609375 17.492188 14.011719 15.558594 14.453125 13.957031 C 14.683594 13.132812 14.90625 12.394531 14.921875 12.414062 C 14.945312 12.441406 15.230469 13.441406 15.433594 14.226562 C 17.023438 20.28125 18.382812 29.214844 19.613281 41.640625 C 19.703125 42.53125 19.804688 43.589844 19.847656 44 C 19.886719 44.402344 19.925781 44.742188 19.933594 44.753906 C 19.945312 44.765625 20.558594 44.648438 21.296875 44.5 C 22.039062 44.351562 24.261719 43.90625 26.238281 43.507812 C 28.214844 43.113281 29.871094 42.777344 29.914062 42.765625 C 29.957031 42.757812 29.992188 42.722656 29.992188 42.695312 C 29.992188 42.550781 29.261719 39.335938 28.898438 37.882812 C 28.351562 35.691406 27.769531 33.511719 26.679688 29.515625 C 25.28125 24.390625 24.835938 22.699219 24.195312 20.089844 C 22.363281 12.636719 21.535156 6.875 21.535156 1.589844 L 21.535156 0.246094 L 21.277344 0.246094 C 21.140625 0.246094 20.253906 0.230469 19.3125 0.210938 C 18.371094 0.195312 16.703125 0.160156 15.59375 0.140625 C 11.167969 0.0585938 9.839844 0.0351562 8.84375 0.015625 L 7.796875 -0.0078125 Z M 7.773438 0.425781 "/>
</g>
</svg>
