<?xml version="1.0" encoding="UTF-8"?>
<svg xmlns="http://www.w3.org/2000/svg" xmlns:xlink="http://www.w3.org/1999/xlink" width="51pt" height="30pt" viewBox="0 0 51 30" version="1.1">
<g id="surface1">
<path style=" stroke:none;fill-rule:nonzero;fill:rgb(0%,0%,0%);fill-opacity:1;" d="M 14 0.121094 C 13.433594 0.402344 12.808594 1.179688 12.726562 1.707031 L 12.699219 1.875 L 11.738281 1.882812 C 8.59375 1.902344 6.519531 1.792969 3.644531 1.453125 C 3.183594 1.398438 2.75 1.34375 2.671875 1.328125 C 2.558594 1.308594 2.542969 1.316406 2.5625 1.367188 C 2.574219 1.402344 2.609375 2.050781 2.632812 2.800781 C 2.6875 4.296875 2.644531 6.550781 2.53125 8.136719 C 2.289062 11.484375 1.734375 15.113281 1.054688 17.773438 C 0.710938 19.128906 0.65625 19.699219 0.691406 21.722656 C 0.707031 22.53125 0.730469 23.316406 0.742188 23.464844 L 0.769531 23.734375 L 0.535156 23.746094 C 0.304688 23.757812 0.304688 23.757812 0.269531 23.894531 C 0.183594 24.3125 -0.015625 27.582031 0.00390625 28.3125 L 0.0195312 28.8125 L 0.160156 28.925781 C 0.363281 29.097656 0.847656 29.335938 1.230469 29.457031 C 1.886719 29.664062 3.039062 29.820312 4.722656 29.929688 C 5.714844 29.992188 9.609375 29.992188 11.714844 29.925781 C 13.621094 29.863281 18.875 29.691406 20.378906 29.640625 C 21.015625 29.617188 23.507812 29.585938 25.917969 29.5625 C 31.414062 29.515625 32.867188 29.480469 35.382812 29.316406 C 37.53125 29.183594 38.910156 29.03125 40.640625 28.738281 C 44.644531 28.066406 48.464844 27.082031 50.023438 26.328125 C 50.890625 25.910156 50.980469 25.765625 50.976562 24.8125 C 50.972656 24.03125 50.808594 23.023438 50.535156 22.101562 C 50.402344 21.652344 50.308594 21.472656 49.976562 21.019531 C 49.820312 20.8125 49.667969 20.589844 49.628906 20.515625 C 49.546875 20.355469 49.457031 20.300781 49.332031 20.351562 C 49.242188 20.386719 49.214844 20.371094 49.070312 20.199219 C 48.53125 19.550781 48.058594 19.308594 47.070312 19.160156 C 46.449219 19.070312 44.261719 19.0625 43.230469 19.148438 C 42.289062 19.230469 42.253906 19.226562 41.628906 19.058594 L 41.082031 18.90625 L 40.753906 18.578125 C 40.21875 18.050781 39.726562 17.855469 38.945312 17.855469 C 38.472656 17.855469 38.109375 17.933594 37.847656 18.082031 C 37.703125 18.167969 37.699219 18.167969 37.410156 18.097656 C 37.132812 18.03125 37.101562 18.011719 36.953125 17.824219 C 36.769531 17.589844 36.421875 17.316406 36.125 17.179688 C 35.9375 17.089844 35.390625 16.929688 34.921875 16.832031 C 34.488281 16.738281 34.199219 16.828125 34.121094 17.0625 C 34.121094 17.070312 33.910156 17.003906 33.65625 16.917969 C 33.273438 16.792969 33.152344 16.726562 32.949219 16.558594 C 32.816406 16.449219 32.65625 16.328125 32.589844 16.296875 C 32.492188 16.246094 32.472656 16.207031 32.472656 16.097656 C 32.472656 15.800781 32.027344 15.496094 31.335938 15.320312 C 30.9375 15.214844 30.800781 15.21875 30.683594 15.324219 C 30.613281 15.390625 30.597656 15.441406 30.609375 15.578125 L 30.621094 15.746094 L 30.480469 15.6875 C 30.40625 15.652344 30.125 15.527344 29.863281 15.398438 L 29.382812 15.167969 L 29.382812 14.941406 C 29.382812 14.714844 29.378906 14.707031 29.195312 14.542969 C 29.050781 14.410156 28.882812 14.316406 28.488281 14.164062 C 27.941406 13.945312 27.824219 13.9375 27.714844 14.089844 C 27.660156 14.167969 27.648438 14.164062 27.34375 13.957031 C 27.171875 13.84375 26.964844 13.699219 26.882812 13.636719 L 26.734375 13.515625 L 26.816406 13.417969 C 26.859375 13.359375 26.894531 13.277344 26.894531 13.234375 C 26.894531 12.960938 26.464844 12.484375 26.007812 12.25 L 25.757812 12.128906 L 25.527344 12.191406 L 25.296875 12.257812 L 25.136719 12.105469 C 24.949219 11.925781 24.546875 11.449219 24.195312 10.996094 L 23.949219 10.675781 L 24.113281 10.523438 C 24.265625 10.382812 24.273438 10.363281 24.25 10.207031 C 24.195312 9.875 23.832031 9.351562 23.476562 9.089844 C 23.273438 8.945312 23.234375 8.933594 23.070312 8.949219 C 22.96875 8.960938 22.855469 8.980469 22.804688 8.996094 C 22.734375 9.019531 22.675781 8.953125 22.386719 8.5625 C 22.097656 8.160156 22.054688 8.074219 22.046875 7.917969 C 22.027344 7.449219 21.308594 6.480469 20.921875 6.394531 C 20.847656 6.378906 20.742188 6.265625 20.539062 5.972656 C 20.386719 5.753906 20.089844 5.335938 19.875 5.050781 L 19.492188 4.527344 L 19.675781 4.5 C 20.007812 4.449219 20.042969 4.277344 19.800781 3.804688 C 19.527344 3.257812 19.09375 2.792969 18.859375 2.792969 C 18.804688 2.792969 18.6875 2.8125 18.59375 2.835938 C 18.4375 2.875 18.410156 2.867188 18.207031 2.742188 C 18.089844 2.667969 17.816406 2.4375 17.605469 2.230469 C 17.394531 2.023438 17.128906 1.800781 17.007812 1.726562 L 16.792969 1.605469 L 16.398438 1.644531 C 16.058594 1.683594 16.003906 1.679688 15.972656 1.628906 C 15.953125 1.589844 15.808594 1.398438 15.652344 1.199219 C 15.492188 0.996094 15.277344 0.714844 15.167969 0.566406 C 14.929688 0.226562 14.785156 0.0976562 14.59375 0.0429688 C 14.359375 -0.0234375 14.257812 -0.0078125 14 0.121094 Z M 14 0.121094 "/>
</g>
</svg>
