<?xml version="1.0" encoding="UTF-8"?>
<svg xmlns="http://www.w3.org/2000/svg" xmlns:xlink="http://www.w3.org/1999/xlink" width="37pt" height="30pt" viewBox="0 0 37 30" version="1.1">
<g id="surface1">
<path style=" stroke:none;fill-rule:nonzero;fill:rgb(0%,0%,0%);fill-opacity:1;" d="M 9.566406 0.0664062 C 9.453125 0.105469 7.703125 1.101562 4.972656 2.679688 C 1.578125 4.640625 0.527344 5.261719 0.40625 5.378906 C 0.0390625 5.714844 -0.0898438 6.242188 0.078125 6.722656 C 0.109375 6.808594 0.816406 8.066406 1.652344 9.511719 C 2.972656 11.816406 3.1875 12.164062 3.339844 12.320312 C 3.695312 12.683594 4.183594 12.800781 4.652344 12.632812 C 4.742188 12.601562 5.710938 12.0625 6.800781 11.425781 C 7.890625 10.796875 8.792969 10.28125 8.800781 10.28125 C 8.808594 10.28125 8.820312 14.480469 8.820312 19.609375 L 8.832031 28.941406 L 8.890625 29.109375 C 9.011719 29.433594 9.246094 29.707031 9.53125 29.851562 C 9.84375 30.007812 9.289062 30 18.460938 30 C 24.066406 30 26.988281 29.992188 27.089844 29.972656 C 27.425781 29.90625 27.777344 29.652344 27.953125 29.347656 C 28.136719 29.023438 28.125 29.75 28.125 19.535156 C 28.125 11.308594 28.132812 10.25 28.167969 10.261719 C 28.191406 10.269531 29.105469 10.796875 30.199219 11.425781 C 31.292969 12.0625 32.257812 12.601562 32.347656 12.632812 C 32.816406 12.800781 33.304688 12.683594 33.660156 12.320312 C 33.8125 12.164062 34.027344 11.816406 35.347656 9.511719 C 36.183594 8.066406 36.890625 6.808594 36.921875 6.722656 C 37.089844 6.242188 36.960938 5.714844 36.59375 5.378906 C 36.472656 5.261719 35.425781 4.644531 32.058594 2.695312 C 29.648438 1.304688 27.601562 0.128906 27.503906 0.0898438 L 27.332031 0.015625 L 21.753906 0.015625 L 21.695312 0.195312 C 21.628906 0.40625 21.550781 0.472656 21.230469 0.609375 C 20.589844 0.875 19.652344 1.011719 18.5 1.011719 C 17.347656 1.011719 16.410156 0.875 15.769531 0.609375 C 15.449219 0.472656 15.371094 0.40625 15.304688 0.195312 L 15.246094 0.015625 L 12.5 0.0078125 L 9.757812 0 Z M 9.566406 0.0664062 "/>
</g>
</svg>
