<?xml version="1.0" encoding="UTF-8"?>
<svg xmlns="http://www.w3.org/2000/svg" xmlns:xlink="http://www.w3.org/1999/xlink" width="30pt" height="22pt" viewBox="0 0 30 22" version="1.1">
<g id="surface1">
<path style=" stroke:none;fill-rule:nonzero;fill:rgb(0%,0%,0%);fill-opacity:1;" d="M 10.003906 0.0234375 C 9.65625 0.0625 9.105469 0.167969 9.035156 0.207031 C 8.949219 0.257812 8.882812 0.382812 8.882812 0.496094 C 8.882812 0.578125 8.878906 0.585938 8.820312 0.585938 C 8.691406 0.585938 8.210938 0.6875 7.972656 0.765625 C 7.835938 0.808594 7.589844 0.875 7.421875 0.914062 C 7.097656 0.988281 7.058594 1.007812 6.957031 1.089844 C 6.921875 1.117188 6.808594 1.175781 6.699219 1.21875 C 6.382812 1.339844 5.3125 1.875 4.925781 2.105469 C 3.550781 2.914062 2.410156 3.875 1.71875 4.8125 C 1.226562 5.480469 1.074219 5.933594 0.9375 7.207031 C 0.835938 8.15625 0.792969 8.382812 0.609375 9.070312 C -0.015625 11.386719 -0.0859375 11.921875 0.078125 13.054688 C 0.144531 13.496094 0.257812 14.078125 0.378906 14.589844 L 0.453125 14.914062 L 1.441406 14.898438 C 1.984375 14.890625 2.925781 14.875 3.539062 14.863281 C 4.152344 14.851562 4.847656 14.839844 5.089844 14.839844 L 5.523438 14.839844 L 6.386719 15.734375 C 10.660156 20.15625 11.339844 20.816406 12.109375 21.296875 C 12.734375 21.683594 13.074219 21.765625 14.601562 21.902344 C 14.75 21.917969 14.992188 21.941406 15.140625 21.957031 C 15.5 21.996094 16.683594 21.992188 16.96875 21.957031 C 17.96875 21.828125 18.628906 21.628906 19.453125 21.214844 C 19.976562 20.953125 20.019531 20.929688 21.746094 19.847656 C 24.109375 18.371094 26 17.613281 28.980469 16.945312 C 29.597656 16.804688 29.851562 16.71875 29.941406 16.613281 C 30.011719 16.53125 30.015625 16.488281 29.957031 16.390625 C 29.851562 16.222656 29.449219 15.996094 28.289062 15.445312 C 27.460938 15.054688 26.105469 14.378906 25.699219 14.148438 C 24.652344 13.558594 23.621094 12.867188 22.910156 12.277344 C 22.777344 12.167969 22.695312 12.117188 22.636719 12.105469 C 22.554688 12.09375 22.550781 12.089844 22.578125 12.042969 C 22.621094 11.972656 22.609375 11.179688 22.5625 10.789062 C 22.390625 9.417969 21.996094 7.9375 21.464844 6.703125 C 21.300781 6.308594 20.945312 5.632812 20.734375 5.289062 C 20.359375 4.695312 20.003906 4.265625 19.367188 3.652344 C 18.101562 2.425781 16.730469 1.507812 15.328125 0.953125 C 14.105469 0.46875 13.050781 0.3125 12.011719 0.453125 C 11.769531 0.488281 11.742188 0.488281 11.742188 0.433594 C 11.742188 0.382812 11.628906 0.261719 11.519531 0.199219 C 11.347656 0.0976562 10.960938 0.0234375 10.546875 0.0117188 C 10.347656 0.0078125 10.105469 0.0117188 10.003906 0.0234375 Z M 15.027344 13.144531 C 14.984375 13.164062 14.9375 13.175781 14.921875 13.167969 C 14.90625 13.164062 14.933594 13.148438 14.976562 13.132812 C 15.09375 13.097656 15.117188 13.105469 15.027344 13.144531 Z M 15.027344 13.144531 "/>
</g>
</svg>
