<?xml version="1.0" encoding="UTF-8"?>
<svg xmlns="http://www.w3.org/2000/svg" xmlns:xlink="http://www.w3.org/1999/xlink" width="30pt" height="26pt" viewBox="0 0 30 26" version="1.1">
<g id="surface1">
<path style=" stroke:none;fill-rule:nonzero;fill:rgb(0%,0%,0%);fill-opacity:1;" d="M 24.421875 0.0234375 C 23.472656 0.128906 22.671875 0.546875 22.34375 1.105469 C 22.308594 1.164062 22.210938 1.332031 22.125 1.472656 C 21.941406 1.777344 21.609375 2.328125 20.757812 3.753906 C 20.421875 4.3125 20.109375 4.84375 20.058594 4.929688 L 19.964844 5.085938 L 19.902344 4.96875 C 19.800781 4.773438 19.554688 4.535156 19.34375 4.425781 C 19.050781 4.28125 18.921875 4.257812 18.46875 4.269531 C 18.144531 4.277344 18.058594 4.289062 17.9375 4.328125 C 17.53125 4.46875 17.203125 4.800781 17.074219 5.195312 L 17.019531 5.371094 L 17.015625 7.699219 C 17.011719 9.9375 17.011719 10.035156 16.964844 10.191406 C 16.859375 10.566406 16.890625 10.960938 17.046875 11.316406 L 17.125 11.488281 L 16.964844 11.632812 C 16.726562 11.863281 16.617188 12.105469 16.617188 12.417969 C 16.617188 12.742188 16.785156 13.074219 17.039062 13.253906 C 17.113281 13.304688 17.757812 13.671875 18.476562 14.074219 C 19.191406 14.472656 19.777344 14.804688 19.78125 14.808594 C 19.78125 14.816406 19.726562 14.90625 19.660156 15.003906 C 19.378906 15.433594 19.324219 15.59375 19.304688 16.078125 C 19.289062 16.398438 19.234375 16.75 19.132812 17.132812 C 19.058594 17.425781 18.703125 18.578125 18.679688 18.605469 C 18.671875 18.613281 18.566406 18.550781 18.441406 18.460938 C 18.011719 18.152344 17.554688 17.972656 17.390625 18.058594 C 17.234375 18.140625 17.246094 18.296875 17.4375 18.621094 C 17.558594 18.820312 17.644531 19.042969 17.765625 19.46875 C 17.859375 19.789062 17.972656 20.132812 18.019531 20.21875 C 18.101562 20.386719 18.230469 20.449219 18.355469 20.390625 C 18.445312 20.339844 18.535156 20.105469 18.621094 19.691406 C 18.695312 19.324219 18.78125 19.058594 18.824219 19.070312 C 18.878906 19.078125 19.070312 19.296875 19.144531 19.433594 C 19.351562 19.8125 19.328125 20.25 19.074219 20.742188 C 18.871094 21.136719 18.578125 21.507812 17.9375 22.195312 C 17.734375 22.417969 17.472656 22.703125 17.359375 22.828125 C 17.148438 23.066406 17.046875 23.140625 16.804688 23.214844 C 16.695312 23.25 16.535156 23.253906 15.679688 23.269531 C 15.054688 23.28125 14.644531 23.296875 14.582031 23.3125 L 14.480469 23.339844 L 14.226562 23.179688 C 14.089844 23.09375 13.902344 22.988281 13.8125 22.949219 C 13.542969 22.832031 12.980469 22.648438 12.375 22.476562 C 12.058594 22.386719 11.539062 22.230469 11.214844 22.132812 C 10.140625 21.800781 9.648438 21.699219 9.109375 21.695312 C 8.890625 21.691406 8.769531 21.683594 8.773438 21.671875 C 9.019531 21.027344 9.03125 20.796875 8.847656 20.4375 C 8.628906 20.019531 8.148438 19.640625 7.335938 19.25 C 7.027344 19.097656 6.480469 18.871094 6.179688 18.769531 C 6.15625 18.761719 6.136719 18.75 6.144531 18.746094 C 6.148438 18.742188 7.050781 18.507812 8.144531 18.222656 C 9.71875 17.816406 10.167969 17.691406 10.296875 17.625 C 10.730469 17.410156 10.964844 16.898438 10.839844 16.429688 C 10.800781 16.285156 10.683594 16.058594 10.617188 16 C 10.574219 15.964844 10.578125 15.957031 10.691406 15.824219 C 10.949219 15.511719 11.0625 15.230469 11.078125 14.84375 C 11.089844 14.578125 11.195312 14.1875 12.054688 11.125 L 12.3125 10.195312 L 12.3125 9.933594 C 12.3125 9.71875 12.300781 9.644531 12.261719 9.527344 C 12.148438 9.222656 11.929688 8.953125 11.65625 8.796875 C 11.4375 8.664062 11.046875 8.554688 10.742188 8.535156 C 10.375 8.507812 9.992188 8.644531 9.710938 8.894531 C 9.628906 8.972656 9.558594 9.027344 9.554688 9.023438 C 9.550781 9.019531 9.464844 8.714844 9.363281 8.347656 C 9.261719 7.980469 9.160156 7.609375 9.140625 7.53125 C 9.117188 7.449219 9.074219 7.285156 9.039062 7.167969 C 8.902344 6.683594 8.734375 6.078125 8.574219 5.511719 C 8.480469 5.179688 8.382812 4.820312 8.355469 4.710938 C 8.214844 4.183594 7.890625 3.769531 7.335938 3.410156 C 6.828125 3.085938 6.199219 2.871094 5.484375 2.777344 C 5.191406 2.738281 4.566406 2.734375 4.246094 2.769531 C 2.546875 2.945312 0.964844 3.9375 0.285156 5.25 C 0.0898438 5.636719 -0.015625 6.054688 0.0078125 6.40625 C 0.0195312 6.628906 0.015625 6.617188 0.609375 8.765625 C 0.792969 9.425781 0.957031 10.019531 0.972656 10.082031 C 0.992188 10.140625 1.027344 10.277344 1.054688 10.375 C 1.082031 10.476562 1.199219 10.894531 1.3125 11.304688 C 1.425781 11.714844 1.542969 12.132812 1.566406 12.230469 C 1.597656 12.328125 1.636719 12.484375 1.667969 12.582031 C 1.691406 12.679688 1.839844 13.207031 1.992188 13.753906 C 2.144531 14.304688 2.386719 15.175781 2.527344 15.695312 C 2.832031 16.789062 2.878906 16.90625 3.140625 17.175781 C 3.230469 17.269531 3.371094 17.386719 3.453125 17.4375 C 3.605469 17.53125 3.863281 17.644531 3.921875 17.644531 C 3.945312 17.644531 3.953125 17.695312 3.953125 17.886719 C 3.953125 18.089844 3.960938 18.15625 4.007812 18.269531 C 4.152344 18.621094 4.414062 18.859375 4.769531 18.949219 C 4.976562 19 5.164062 18.992188 5.46875 18.914062 L 5.734375 18.847656 L 5.933594 18.917969 C 6.707031 19.183594 7.453125 19.523438 7.882812 19.800781 C 8.238281 20.027344 8.519531 20.300781 8.640625 20.535156 C 8.714844 20.6875 8.734375 20.742188 8.738281 20.890625 C 8.746094 21.046875 8.738281 21.09375 8.640625 21.375 C 8.578125 21.546875 8.519531 21.703125 8.503906 21.71875 C 8.492188 21.730469 8.445312 21.753906 8.394531 21.761719 C 8.347656 21.769531 8.230469 21.8125 8.136719 21.855469 C 7.691406 22.058594 7.449219 22.507812 7.445312 23.132812 C 7.441406 23.449219 7.488281 23.542969 7.65625 23.542969 C 7.6875 23.542969 7.742188 23.527344 7.777344 23.511719 C 7.941406 23.425781 8.289062 22.851562 8.566406 22.199219 C 8.699219 21.894531 8.675781 21.910156 9.050781 21.910156 C 9.5625 21.910156 10.179688 22.039062 11.25 22.375 C 11.464844 22.4375 11.859375 22.558594 12.128906 22.632812 C 13.210938 22.941406 13.710938 23.121094 14.015625 23.316406 C 14.117188 23.378906 14.203125 23.441406 14.203125 23.449219 C 14.203125 23.457031 14.148438 23.492188 14.082031 23.53125 C 13.921875 23.625 13.820312 23.742188 13.695312 23.984375 C 13.367188 24.636719 13.445312 25.285156 13.90625 25.6875 C 14.148438 25.902344 14.445312 26.007812 14.742188 25.984375 C 14.9375 25.96875 15.089844 25.90625 15.230469 25.777344 C 15.425781 25.601562 15.515625 25.355469 15.515625 25.007812 C 15.515625 24.488281 15.339844 24.0625 14.980469 23.707031 C 14.886719 23.613281 14.816406 23.53125 14.824219 23.519531 C 14.832031 23.515625 15.25 23.5 15.746094 23.492188 C 16.714844 23.476562 16.796875 23.46875 17.066406 23.351562 C 17.230469 23.28125 17.324219 23.207031 17.511719 22.996094 C 17.59375 22.902344 17.851562 22.621094 18.085938 22.367188 C 18.789062 21.613281 19.070312 21.242188 19.292969 20.808594 C 19.648438 20.097656 19.566406 19.449219 19.050781 18.960938 L 18.871094 18.789062 L 18.988281 18.425781 C 19.398438 17.144531 19.496094 16.710938 19.542969 15.976562 C 19.5625 15.707031 19.574219 15.640625 19.625 15.527344 C 19.671875 15.425781 19.921875 15.007812 19.984375 14.925781 C 19.988281 14.921875 20.3125 15.097656 20.703125 15.316406 C 21.523438 15.777344 21.566406 15.796875 21.789062 15.832031 C 22.351562 15.921875 22.90625 15.546875 23.03125 14.992188 C 23.046875 14.910156 23.0625 14.835938 23.0625 14.828125 C 23.0625 14.820312 23.125 14.808594 23.199219 14.796875 C 23.441406 14.773438 23.65625 14.710938 23.871094 14.609375 C 24.039062 14.527344 24.121094 14.46875 24.269531 14.320312 C 24.441406 14.15625 24.488281 14.082031 24.898438 13.390625 C 25.144531 12.980469 25.566406 12.273438 25.839844 11.816406 C 26.488281 10.738281 28.773438 6.90625 29.257812 6.089844 C 29.464844 5.738281 29.679688 5.378906 29.734375 5.285156 C 30.171875 4.554688 30.054688 3.492188 29.417969 2.472656 C 29.144531 2.03125 28.675781 1.511719 28.257812 1.179688 C 27.617188 0.679688 26.757812 0.273438 25.984375 0.117188 C 25.488281 0.0117188 24.871094 -0.0234375 24.421875 0.0234375 Z M 17.722656 18.304688 C 17.792969 18.328125 17.910156 18.390625 17.988281 18.433594 C 18.140625 18.519531 18.539062 18.800781 18.582031 18.851562 C 18.601562 18.875 18.589844 18.941406 18.535156 19.109375 C 18.496094 19.230469 18.441406 19.453125 18.410156 19.601562 C 18.34375 19.914062 18.285156 20.113281 18.257812 20.128906 C 18.21875 20.152344 18.167969 20.015625 18.027344 19.535156 C 17.832031 18.878906 17.785156 18.757812 17.636719 18.507812 C 17.566406 18.386719 17.507812 18.28125 17.507812 18.273438 C 17.507812 18.242188 17.597656 18.257812 17.722656 18.304688 Z M 8.300781 22.242188 C 8.066406 22.757812 7.761719 23.269531 7.691406 23.269531 C 7.660156 23.269531 7.660156 23.234375 7.671875 23.046875 C 7.699219 22.648438 7.8125 22.375 8.019531 22.191406 C 8.128906 22.097656 8.371094 21.984375 8.386719 22.023438 C 8.386719 22.03125 8.351562 22.128906 8.300781 22.242188 Z M 14.597656 23.6875 C 14.84375 23.871094 15.078125 24.144531 15.171875 24.363281 C 15.238281 24.515625 15.289062 24.796875 15.289062 25.003906 C 15.289062 25.371094 15.179688 25.597656 14.9375 25.710938 C 14.824219 25.765625 14.792969 25.769531 14.625 25.757812 C 14.082031 25.730469 13.667969 25.230469 13.71875 24.675781 C 13.75 24.382812 13.910156 23.992188 14.078125 23.8125 C 14.140625 23.742188 14.40625 23.585938 14.453125 23.585938 C 14.460938 23.585938 14.523438 23.632812 14.597656 23.6875 Z M 14.597656 23.6875 "/>
</g>
</svg>
