<?xml version="1.0" encoding="UTF-8"?>
<svg xmlns="http://www.w3.org/2000/svg" xmlns:xlink="http://www.w3.org/1999/xlink" width="30pt" height="18pt" viewBox="0 0 30 18" version="1.1">
<g id="surface1">
<path style=" stroke:none;fill-rule:nonzero;fill:rgb(0%,0%,0%);fill-opacity:1;" d="M 24.46875 0.117188 C 21.542969 1.484375 18.125 2.359375 14.730469 2.617188 C 13.246094 2.726562 11.449219 2.726562 9.914062 2.617188 C 7.890625 2.46875 5.863281 2.152344 3.636719 1.636719 C 3.464844 1.597656 3.390625 1.585938 3.386719 1.605469 C 3.378906 1.621094 2.875 3.585938 2.265625 5.972656 L 1.152344 10.3125 L 0.859375 10.601562 C 0.699219 10.757812 0.503906 10.972656 0.425781 11.078125 C 0.167969 11.40625 0 11.765625 0 11.992188 C 0 12.214844 0.140625 12.445312 0.335938 12.546875 C 0.542969 12.648438 0.789062 12.617188 1.230469 12.4375 C 1.632812 12.269531 1.925781 12.175781 2.035156 12.175781 C 2.171875 12.175781 2.246094 12.25 2.332031 12.484375 C 2.515625 12.988281 2.621094 13.152344 2.804688 13.199219 C 2.957031 13.242188 3.007812 13.230469 3.320312 13.078125 C 3.671875 12.910156 3.910156 12.824219 4.136719 12.792969 C 4.433594 12.742188 4.476562 12.792969 4.550781 13.273438 C 4.621094 13.71875 4.671875 13.859375 4.796875 13.949219 C 4.964844 14.070312 5.09375 14.058594 5.386719 13.898438 C 5.839844 13.652344 6.285156 13.519531 6.417969 13.59375 C 6.511719 13.644531 6.535156 13.71875 6.574219 14.085938 C 6.59375 14.269531 6.621094 14.460938 6.636719 14.515625 C 6.753906 14.9375 7.097656 15.101562 7.558594 14.949219 C 7.660156 14.917969 7.898438 14.808594 8.082031 14.707031 C 8.269531 14.609375 8.445312 14.519531 8.472656 14.515625 C 8.523438 14.503906 8.523438 14.507812 8.539062 14.761719 C 8.582031 15.519531 8.820312 16.007812 9.195312 16.105469 C 9.359375 16.148438 9.542969 16.117188 9.875 15.976562 C 10.039062 15.90625 10.214844 15.847656 10.261719 15.847656 C 10.394531 15.839844 10.40625 15.886719 10.40625 16.390625 C 10.40625 16.855469 10.421875 16.941406 10.511719 17.0625 C 10.632812 17.226562 10.804688 17.238281 11.089844 17.113281 C 11.453125 16.949219 11.859375 16.835938 12.074219 16.835938 C 12.230469 16.835938 12.296875 16.925781 12.429688 17.316406 C 12.601562 17.8125 12.722656 17.964844 12.976562 17.992188 C 13.164062 18.015625 13.375 17.898438 13.46875 17.71875 C 13.566406 17.535156 13.613281 17.160156 13.578125 16.808594 L 13.554688 16.609375 L 13.652344 16.59375 C 13.703125 16.589844 14.042969 16.5625 14.402344 16.535156 C 14.761719 16.511719 15.328125 16.46875 15.65625 16.445312 C 15.984375 16.421875 16.292969 16.402344 16.335938 16.402344 L 16.417969 16.402344 L 16.417969 16.832031 C 16.417969 17.210938 16.421875 17.277344 16.472656 17.421875 C 16.53125 17.613281 16.640625 17.761719 16.769531 17.835938 C 16.847656 17.878906 16.890625 17.886719 17.03125 17.882812 C 17.167969 17.875 17.210938 17.863281 17.28125 17.808594 C 17.410156 17.714844 17.480469 17.546875 17.542969 17.1875 C 17.632812 16.675781 17.652344 16.621094 17.785156 16.566406 C 17.949219 16.496094 18.449219 16.527344 18.878906 16.632812 C 19.1875 16.710938 19.320312 16.683594 19.445312 16.523438 C 19.507812 16.445312 19.511719 16.425781 19.511719 16.210938 C 19.507812 16.082031 19.503906 15.859375 19.492188 15.714844 C 19.472656 15.472656 19.472656 15.449219 19.515625 15.414062 C 19.660156 15.289062 20.316406 15.300781 20.84375 15.433594 C 21.007812 15.472656 21.109375 15.457031 21.214844 15.375 C 21.28125 15.320312 21.289062 15.296875 21.296875 15.175781 C 21.308594 15.042969 21.300781 15.007812 21.179688 14.667969 C 21.121094 14.507812 21.121094 14.496094 21.15625 14.457031 C 21.292969 14.304688 21.976562 14.261719 22.589844 14.355469 C 22.882812 14.40625 23.015625 14.371094 23.128906 14.230469 C 23.230469 14.097656 23.246094 13.949219 23.191406 13.636719 C 23.152344 13.429688 23.148438 13.207031 23.175781 13.167969 C 23.246094 13.0625 23.46875 13.035156 23.652344 13.105469 C 23.800781 13.160156 24 13.277344 24.132812 13.386719 C 24.242188 13.476562 24.25 13.480469 24.371094 13.46875 C 24.519531 13.453125 24.597656 13.414062 24.683594 13.324219 C 24.789062 13.21875 24.839844 13.074219 24.90625 12.6875 C 25.015625 12.039062 25.054688 12.023438 25.554688 12.414062 C 25.871094 12.660156 25.984375 12.710938 26.214844 12.710938 C 26.609375 12.710938 26.769531 12.527344 26.882812 11.945312 C 26.945312 11.625 26.980469 11.542969 27.054688 11.523438 C 27.132812 11.503906 27.214844 11.550781 27.421875 11.734375 C 27.652344 11.941406 27.71875 11.984375 27.851562 12.015625 C 28.09375 12.078125 28.347656 11.929688 28.441406 11.683594 C 28.566406 11.347656 28.582031 11.320312 28.632812 11.3125 C 28.660156 11.308594 28.820312 11.339844 28.984375 11.386719 C 29.351562 11.488281 29.492188 11.503906 29.644531 11.46875 C 29.949219 11.394531 30.085938 11.050781 29.933594 10.734375 C 29.800781 10.460938 29.394531 10.121094 28.863281 9.832031 L 28.675781 9.734375 L 28.433594 9.097656 C 28.164062 8.398438 26.65625 4.464844 25.359375 1.085938 L 24.945312 0.0117188 L 24.832031 0.0078125 C 24.734375 0.00390625 24.675781 0.0195312 24.46875 0.117188 Z M 24.46875 0.117188 "/>
</g>
</svg>
