<?xml version="1.0" encoding="UTF-8"?>
<svg xmlns="http://www.w3.org/2000/svg" xmlns:xlink="http://www.w3.org/1999/xlink" width="256pt" height="256pt" viewBox="0 0 256 256" version="1.1">
<g id="surface1">
<path style=" stroke:none;fill-rule:nonzero;fill:rgb(0%,0%,0%);fill-opacity:1;" d="M 15.148438 3.398438 C 10.851562 7.101562 1.550781 16.851562 0.851562 18.351562 C -0.800781 22 2.898438 19.050781 12.898438 8.800781 C 16.800781 4.800781 20 1.25 20 1 C 20 -0.148438 18.300781 0.699219 15.148438 3.398438 Z M 15.148438 3.398438 "/>
<path style=" stroke:none;fill-rule:nonzero;fill:rgb(0%,0%,0%);fill-opacity:1;" d="M 25.148438 3.449219 C 19.949219 7.949219 1.148438 27.199219 0.75 28.449219 C 0.148438 30.300781 0.851562 30.199219 3.351562 28.101562 C 6.949219 25.101562 30 1.648438 30 1.050781 C 30 -0.148438 28.351562 0.648438 25.148438 3.449219 Z M 25.148438 3.449219 "/>
<path style=" stroke:none;fill-rule:nonzero;fill:rgb(0%,0%,0%);fill-opacity:1;" d="M 35.148438 3.449219 C 29.550781 8.300781 1.148438 37.148438 0.800781 38.398438 C -0.351562 41.949219 2 39.851562 22.898438 18.851562 C 32.300781 9.398438 40 1.398438 40 1.050781 C 40 -0.148438 38.398438 0.648438 35.148438 3.449219 Z M 35.148438 3.449219 "/>
<path style=" stroke:none;fill-rule:nonzero;fill:rgb(0%,0%,0%);fill-opacity:1;" d="M 45.148438 3.449219 C 39.351562 8.449219 1.148438 47.199219 0.75 48.398438 C -0.351562 52 1.699219 50.148438 27.898438 23.851562 C 40.050781 11.648438 50 1.398438 50 1.101562 C 50 -0.148438 48.398438 0.601562 45.148438 3.449219 Z M 45.148438 3.449219 "/>
<path style=" stroke:none;fill-rule:nonzero;fill:rgb(0%,0%,0%);fill-opacity:1;" d="M 55.148438 3.449219 C 49.25 8.550781 1.148438 57.199219 0.75 58.398438 C 0.199219 60.300781 0.851562 60.25 3.351562 58.101562 C 7.300781 54.800781 60 1.75 60 1.101562 C 60 -0.148438 58.398438 0.601562 55.148438 3.449219 Z M 55.148438 3.449219 "/>
<path style=" stroke:none;fill-rule:nonzero;fill:rgb(0%,0%,0%);fill-opacity:1;" d="M 65.148438 3.449219 C 59.199219 8.648438 1.148438 67.199219 0.75 68.398438 C 0.199219 70.300781 0.851562 70.25 3.351562 68.101562 C 7.351562 64.75 70 1.75 70 1.101562 C 70 -0.148438 68.398438 0.601562 65.148438 3.449219 Z M 65.148438 3.449219 "/>
<path style=" stroke:none;fill-rule:nonzero;fill:rgb(0%,0%,0%);fill-opacity:1;" d="M 75.148438 3.449219 C 69.101562 8.699219 1.148438 77.199219 0.75 78.398438 C 0.199219 80.300781 0.851562 80.25 3.351562 78.101562 C 7.398438 74.699219 80 1.75 80 1.101562 C 80 -0.148438 78.398438 0.601562 75.148438 3.449219 Z M 75.148438 3.449219 "/>
<path style=" stroke:none;fill-rule:nonzero;fill:rgb(0%,0%,0%);fill-opacity:1;" d="M 85.148438 3.449219 C 79.101562 8.699219 1.148438 87.199219 0.75 88.398438 C 0.199219 90.300781 0.851562 90.25 3.351562 88.101562 C 7.398438 84.699219 90 1.75 90 1.101562 C 90 -0.148438 88.398438 0.601562 85.148438 3.449219 Z M 85.148438 3.449219 "/>
<path style=" stroke:none;fill-rule:nonzero;fill:rgb(0%,0%,0%);fill-opacity:1;" d="M 96.648438 2.101562 C 95.601562 2.949219 91.601562 6.75 87.75 10.5 C 83.898438 14.25 79.699219 17.949219 78.351562 18.699219 C 74.75 20.75 69.949219 25.550781 66.601562 30.398438 C 64.25 33.800781 57.25 41.050781 35 63.25 C 19.25 78.898438 5.101562 93.25 3.449219 95.148438 C 0.601562 98.398438 -0.148438 100 1.101562 100 C 1.398438 100 14.050781 87.699219 29.148438 72.601562 L 56.601562 45.25 L 52.300781 51.75 C 49.949219 55.300781 48 58.699219 48 59.25 C 48 59.898438 40.800781 67.398438 27.199219 81 C 5.898438 102.25 0.5 107.949219 0.5 109.25 C 0.5 110.5 1.101562 110.148438 4.648438 106.949219 L 8 103.898438 L 8 107.148438 C 8 109.550781 7.800781 110.550781 7.148438 111.050781 C 5.449219 112.5 0.5 118.550781 0.5 119.25 C 0.5 120.550781 1.25 120.101562 5.648438 116 C 9.550781 112.351562 10.101562 112 11.949219 112 C 14.699219 112 16 110.699219 16 107.851562 C 16 105.898438 16.25 105.449219 18.898438 102.851562 C 21.5 100.300781 22 100 23.898438 100 C 26.699219 100 28 98.699219 28 95.851562 C 28 93.75 28.050781 93.699219 41.148438 80.601562 L 54.25 67.5 L 56 68.949219 L 57.75 70.449219 L 30.699219 97.601562 C 15.851562 112.550781 2.949219 125.601562 2.101562 126.648438 C 0.449219 128.601562 0.0507812 130 1.101562 130 C 1.398438 130 14.75 116.949219 30.699219 101.050781 L 59.75 72.050781 L 63.25 74.949219 L 50.75 87.5 C 38.351562 99.898438 38.25 100 36.148438 100 C 33.25 100 32 101.25 32 104.148438 C 32 106.101562 31.75 106.550781 29.101562 109.148438 C 26.5 111.699219 26 112 24.101562 112 C 21.300781 112 20 113.300781 20 116.148438 C 20 118.199219 19.800781 118.449219 13.199219 125 C 2.699219 135.449219 -1 140 1 140 C 1.300781 140 5.699219 135.949219 10.75 130.949219 L 19.898438 121.898438 L 20.949219 122.949219 C 21.550781 123.550781 22.5 124 23.101562 124 C 24 124 21.898438 126.351562 13.949219 134.351562 C 8.300781 140.101562 2.949219 145.601562 2.101562 146.648438 C 0.449219 148.601562 0.0507812 150 1.101562 150 C 1.398438 150 17.25 134.5 36.199219 115.550781 L 70.75 81.050781 L 72.449219 82.601562 L 74.148438 84.101562 L 64.199219 94.050781 C 54.398438 103.851562 54.25 104 52.148438 104 C 49.300781 104 48 105.25 48 108.148438 L 48 110.25 L 27.199219 131 C 15.75 142.398438 5.101562 153.25 3.449219 155.148438 C 0.601562 158.398438 -0.148438 160 1.101562 160 C 1.398438 160 12.5 149.199219 25.699219 136.050781 L 49.75 112.050781 L 51.101562 113.949219 L 52.449219 115.800781 L 29.398438 138.800781 C 16.75 151.398438 5.101562 163.25 3.449219 165.148438 C 0.601562 168.398438 -0.148438 170 1.101562 170 C 1.398438 170 13.449219 158.25 27.851562 143.898438 C 52.699219 119.050781 54.050781 117.851562 54.75 118.75 C 56.949219 121.601562 58.648438 119.601562 30.148438 148.199219 C 15.601562 162.800781 2.949219 175.601562 2.101562 176.648438 C 0.449219 178.601562 0.0507812 180 1.101562 180 C 1.398438 180 14.449219 167.25 30 151.699219 L 58.351562 123.449219 L 59.148438 124.699219 C 59.648438 125.398438 60 126.5 60 127.101562 C 60 127.949219 53 135.25 33.199219 155 C 18.449219 169.699219 5.101562 183.25 3.449219 185.148438 C 0.601562 188.398438 -0.148438 190 1.101562 190 C 1.398438 190 14.800781 176.898438 30.851562 160.898438 L 60 131.800781 L 60 138.25 L 33.199219 165 C 18.449219 179.699219 5.101562 193.25 3.449219 195.148438 C 0.601562 198.398438 -0.148438 200 1.101562 200 C 1.398438 200 14.800781 186.898438 30.851562 170.898438 L 60 141.800781 L 60 148.25 L 49.351562 158.851562 C 43.351562 164.851562 37.949219 169.75 36.949219 170.25 C 34 171.550781 31.300781 174.199219 29.601562 177.351562 C 28.449219 179.5 25.25 183 17.25 191 C 2.550781 205.601562 -1.199219 210 1.050781 210 C 1.351562 210 7.5 204.148438 14.75 196.949219 L 27.898438 183.898438 L 28.101562 186.949219 L 28.25 190 L 17.351562 200.898438 C 2.5 215.648438 -1.199219 220 1.050781 220 C 1.351562 220 7.851562 213.851562 15.449219 206.300781 L 29.25 192.601562 L 30.550781 194.5 L 31.898438 196.351562 L 19.148438 209.050781 C 2.398438 225.75 -1.300781 230 1.050781 230 C 1.351562 230 8.851562 222.800781 17.699219 214.050781 L 33.75 198.101562 L 35.648438 199.398438 L 37.550781 200.699219 L 20.601562 217.699219 C 11.300781 227.101562 2.949219 235.601562 2.101562 236.648438 C 0.449219 238.550781 0.0507812 240 1.050781 240 C 1.398438 240 10.25 231.449219 20.699219 221 L 39.800781 202 L 41.699219 203.300781 L 43.601562 204.601562 L 23.648438 224.699219 C 12.648438 235.699219 2.949219 245.601562 2.101562 246.648438 C 0.449219 248.550781 0.0507812 250 1.101562 250 C 1.398438 250 11.601562 240.050781 23.800781 227.949219 L 45.898438 205.898438 L 47.601562 207.050781 C 48.5 207.648438 49.351562 208.25 49.449219 208.351562 C 49.601562 208.449219 39.300781 218.949219 26.601562 231.699219 C 13.898438 244.398438 3.5 255.101562 3.5 255.398438 C 3.5 256.449219 4.949219 256.050781 6.851562 254.398438 C 7.898438 253.550781 18.449219 243.148438 30.300781 231.351562 L 51.851562 209.898438 L 53.898438 211.050781 L 55.949219 212.25 L 34.75 233.550781 C 23.050781 245.25 13.5 255.101562 13.5 255.398438 C 13.5 256.648438 15.101562 255.851562 18.351562 253.050781 C 20.25 251.398438 29.851562 241.949219 39.75 232.050781 C 49.648438 222.101562 57.898438 214 58.101562 214 C 58.300781 214 59.25 214.5 60.25 215.050781 L 62.050781 216.148438 L 42.800781 235.5 C 32.199219 246.148438 23.5 255.101562 23.5 255.449219 C 23.5 256.449219 24.949219 256.050781 26.851562 254.398438 C 27.898438 253.550781 36.75 244.898438 46.5 235.199219 L 64.25 217.601562 L 66.199219 218.851562 L 68.101562 220.101562 L 50.800781 237.449219 C 41.300781 247.050781 33.5 255.101562 33.5 255.449219 C 33.5 257.800781 37.699219 254.148438 55.949219 235.851562 C 70.050781 221.699219 70.199219 221.550781 71.449219 222.25 C 72.148438 222.648438 73.101562 223.199219 73.5 223.449219 C 74.101562 223.851562 71.148438 227.050781 58.851562 239.398438 C 50.398438 247.898438 43.5 255.148438 43.5 255.449219 C 43.5 256.449219 44.949219 256 46.851562 254.398438 C 47.898438 253.550781 54.949219 246.648438 62.601562 239.101562 L 76.398438 225.351562 L 78.199219 226.449219 C 79.199219 227.101562 80 227.699219 80 227.898438 C 80 228.050781 74.050781 234.199219 66.75 241.550781 C 59.449219 248.898438 53.5 255.148438 53.5 255.449219 C 53.5 257.699219 57.898438 254 72 239.800781 C 77.648438 234.148438 82.398438 229.5 82.648438 229.5 C 82.851562 229.5 83.800781 230 84.699219 230.601562 L 86.449219 231.75 L 74.949219 243.351562 C 68.648438 249.699219 63.5 255.148438 63.5 255.449219 C 63.5 257.601562 67.949219 253.898438 80.199219 241.601562 L 88.648438 233.101562 L 90.601562 234.351562 L 92.5 235.648438 L 83 245.300781 C 77.800781 250.601562 73.5 255.199219 73.5 255.449219 C 73.5 256.449219 74.949219 256 76.851562 254.398438 C 77.898438 253.550781 82.351562 249.25 86.75 244.898438 L 94.75 237 L 96.648438 238.300781 L 98.550781 239.601562 L 91.050781 247.300781 C 86.898438 251.5 83.5 255.199219 83.5 255.5 C 83.5 256.449219 85 256 86.851562 254.398438 C 87.898438 253.550781 91.5 250.148438 94.851562 246.851562 L 100.898438 240.851562 L 102.601562 242 C 103.5 242.648438 104.351562 243.25 104.449219 243.300781 C 104.550781 243.398438 102.148438 246.101562 99.050781 249.25 C 96 252.449219 93.5 255.25 93.5 255.550781 C 93.5 256.449219 95 255.949219 96.851562 254.398438 C 97.898438 253.550781 100.601562 251.050781 102.851562 248.851562 L 106.898438 244.851562 L 109.148438 245.800781 L 111.398438 246.699219 L 107.449219 250.949219 C 103.398438 255.25 102.949219 256 104.25 256 C 104.949219 256 110.648438 251.351562 112.898438 248.851562 C 114.101562 247.550781 114.050781 247.550781 118.398438 248.800781 C 118.851562 248.949219 118.050781 250.148438 116.300781 252.101562 C 114.75 253.851562 113.5 255.398438 113.5 255.601562 C 113.5 256.699219 115.398438 255.648438 118.75 252.75 C 122.449219 249.5 122.449219 249.5 125.5 249.5 L 128.550781 249.5 L 125.949219 252.5 C 121.601562 257.5 123.949219 257.199219 129.601562 252.050781 C 132.601562 249.300781 133.351562 248.851562 136.800781 248 C 138.898438 247.449219 140.75 247 140.851562 247 C 141 247 139.398438 248.851562 137.300781 251.101562 C 133.398438 255.25 132.949219 256 134.25 256 C 135.101562 256 137.449219 254.050781 142.5 249.199219 C 145.949219 245.851562 146.550781 245.449219 150 244.550781 C 152.050781 243.949219 153.949219 243.5 154.148438 243.5 C 154.398438 243.5 152.101562 246.101562 149.050781 249.300781 C 146 252.449219 143.5 255.25 143.5 255.550781 C 143.5 256.449219 145 255.949219 146.851562 254.398438 C 147.898438 253.550781 151.25 250.398438 154.25 247.398438 L 159.800781 242 L 164.148438 240.800781 L 168.5 239.648438 L 161 247.351562 C 156.851562 251.550781 153.5 255.199219 153.5 255.5 C 153.5 256.449219 155 256 156.851562 254.398438 C 157.898438 253.550781 162 249.601562 166.050781 245.648438 L 173.300781 238.449219 L 177.699219 237.25 L 182.101562 236.050781 L 172.800781 245.5 C 167.699219 250.699219 163.5 255.199219 163.5 255.449219 C 163.5 256.449219 164.949219 256 166.851562 254.398438 C 167.898438 253.550781 172.898438 248.75 178 243.699219 L 187.25 234.648438 L 191.398438 233.601562 L 195.550781 232.601562 L 184.550781 243.75 C 178.449219 249.898438 173.5 255.148438 173.5 255.449219 C 173.5 257.648438 177.949219 253.898438 190.75 241.050781 L 199.75 232 L 206.148438 232 L 194.851562 243.449219 C 188.601562 249.75 183.5 255.148438 183.5 255.449219 C 183.5 257.648438 187.949219 253.898438 200.75 241.050781 L 209.75 232 L 216.148438 232 L 204.851562 243.449219 C 198.601562 249.75 193.5 255.148438 193.5 255.449219 C 193.5 256.449219 194.949219 256 196.851562 254.398438 C 197.898438 253.550781 203.5 248.148438 209.25 242.449219 L 219.75 232.050781 L 223.101562 231.898438 L 226.449219 231.75 L 214.949219 243.351562 C 208.648438 249.699219 203.5 255.148438 203.5 255.449219 C 203.5 256.449219 204.949219 256 206.851562 254.398438 C 209.898438 251.851562 249.800781 212.050781 253.050781 208.351562 C 255.851562 205.148438 256.648438 203.5 255.449219 203.5 C 255.148438 203.5 248.800781 209.550781 241.300781 216.949219 L 227.75 230.449219 L 227.898438 227.101562 L 228.050781 223.75 L 240.449219 211.25 C 247.25 204.351562 253.550781 197.898438 254.398438 196.851562 C 256 194.949219 256.449219 193.5 255.449219 193.5 C 255.148438 193.5 248.851562 199.5 241.449219 206.851562 L 228 220.199219 L 228 213.75 L 239.050781 202.75 C 254 187.851562 257.699219 183.5 255.449219 183.5 C 255.148438 183.5 248.851562 189.5 241.449219 196.851562 L 228 210.199219 L 228 203.75 L 239.050781 192.75 C 254 177.851562 257.699219 173.5 255.449219 173.5 C 255.148438 173.5 248.851562 179.5 241.449219 186.851562 L 228 200.199219 L 228 193.75 L 239.050781 182.75 C 254 167.851562 257.699219 163.5 255.449219 163.5 C 255.148438 163.5 248.851562 169.5 241.449219 176.851562 L 228 190.199219 L 228 183.75 L 239.050781 172.75 C 254 157.851562 257.699219 153.5 255.449219 153.5 C 255.148438 153.5 248.851562 159.5 241.449219 166.851562 L 228 180.199219 L 228 173.75 L 239.050781 162.75 C 254 147.851562 257.699219 143.5 255.449219 143.5 C 255.148438 143.5 248.898438 149.449219 241.550781 156.75 C 228.398438 169.800781 228.148438 170 227.25 169 C 226.75 168.449219 225.898438 167.898438 225.351562 167.699219 C 224.550781 167.449219 226.648438 165.101562 238.601562 153.050781 C 246.398438 145.199219 253.550781 137.898438 254.398438 136.851562 C 256.050781 134.949219 256.449219 133.5 255.449219 133.5 C 255.101562 133.5 247.199219 141.148438 237.800781 150.5 L 220.699219 167.5 L 214.25 167.5 L 233.550781 148.101562 C 244.148438 137.449219 253.550781 127.898438 254.398438 126.851562 C 256.050781 124.949219 256.449219 123.5 255.398438 123.5 C 255.101562 123.5 244.898438 133.398438 232.75 145.5 L 210.699219 167.5 L 204.25 167.5 L 228.550781 143.101562 C 241.898438 129.699219 253.550781 117.898438 254.398438 116.851562 C 256.050781 114.898438 256.449219 113.5 255.398438 113.5 C 255.101562 113.5 242.648438 125.648438 227.75 140.5 C 203.851562 164.398438 200.550781 167.5 199.199219 167.5 C 198.351562 167.5 197.300781 167.101562 196.851562 166.601562 C 196.101562 165.75 197.601562 164.148438 223.050781 138.75 C 237.949219 123.898438 251.398438 110.25 253.050781 108.351562 C 255.898438 105.101562 256.648438 103.5 255.398438 103.5 C 255.101562 103.5 241.199219 117.101562 224.5 133.75 C 207.851562 150.398438 194.050781 164 193.851562 164 C 193.601562 164 192.699219 163.5 191.75 162.851562 L 190.050781 161.699219 L 220.050781 131.699219 C 236.601562 115.25 251.398438 100.25 253.050781 98.351562 C 255.898438 95.101562 256.648438 93.5 255.398438 93.5 C 255.101562 93.5 239.800781 108.5 221.398438 126.851562 L 188 160.199219 L 188 153.75 L 219.050781 122.75 C 236.101562 105.699219 251.398438 90.25 253.050781 88.351562 C 255.898438 85.101562 256.648438 83.5 255.398438 83.5 C 255.101562 83.5 239.800781 98.5 221.398438 116.851562 L 188 150.199219 L 188 143.75 L 219.050781 112.75 C 236.101562 95.699219 251.398438 80.25 253.050781 78.351562 C 255.898438 75.101562 256.648438 73.5 255.398438 73.5 C 255.101562 73.5 239.800781 88.5 221.398438 106.851562 L 188 140.199219 L 188 133.75 L 225.75 96 L 227.898438 96 C 230.75 96 232 94.699219 232 91.851562 C 232 89.898438 232.25 89.449219 234.898438 86.851562 C 237.5 84.300781 238 84 239.898438 84 C 242.75 84 244 82.699219 244 79.851562 C 244 77.898438 244.25 77.449219 247.050781 74.75 C 253.550781 68.351562 257.25 63.5 255.550781 63.5 C 255.300781 63.5 252.601562 65.898438 249.550781 68.800781 L 244.050781 74.050781 L 243.050781 73.050781 C 242.449219 72.449219 241.5 72 240.898438 72 C 240 72 241.101562 70.601562 246.300781 65.351562 C 249.898438 61.75 253.550781 57.898438 254.398438 56.851562 C 256.050781 54.898438 256.449219 53.5 255.398438 53.5 C 255.101562 53.5 242.5 65.800781 227.398438 80.851562 C 207.050781 101.199219 200 107.949219 200 107.101562 C 200 106.5 199.5 105.5 198.949219 104.949219 L 197.898438 103.898438 L 225.148438 76.550781 C 240.148438 61.550781 253.25 48.25 254.199219 47.101562 C 256 44.898438 256.5 43.5 255.449219 43.5 C 255.148438 43.5 249.75 48.601562 243.449219 54.851562 L 232 66.148438 L 232 64.300781 C 232 63.25 231.800781 62.050781 231.550781 61.550781 C 231.148438 60.851562 232.699219 59.050781 240.601562 51.199219 C 253.949219 37.898438 257.648438 33.5 255.449219 33.5 C 255.148438 33.5 248.898438 39.449219 241.550781 46.75 C 232.25 55.949219 227.851562 60 227.101562 60 C 225.648438 60 224 61.699219 224 63.148438 C 224 64.699219 216.648438 72 215.101562 72 C 213.699219 72 212 73.699219 212 75.148438 C 212 75.949219 208.101562 80.148438 198.101562 90.148438 L 184.25 104 L 177.75 104 L 215.300781 66.351562 C 235.949219 45.699219 253.550781 27.898438 254.398438 26.851562 C 256.050781 24.898438 256.449219 23.5 255.398438 23.5 C 255.050781 23.5 236.648438 41.601562 214.5 63.75 C 185.300781 92.949219 173.898438 104 173.101562 104 C 172.148438 104 172 103.75 172 101.851562 L 172 99.75 L 211.050781 60.75 C 232.5 39.300781 251.398438 20.25 253.050781 18.351562 C 255.898438 15.101562 256.648438 13.5 255.398438 13.5 C 255.101562 13.5 244.300781 24 231.398438 36.851562 C 217.148438 51.050781 208 59.851562 208 59.300781 C 208 58.800781 207.601562 57.75 207.148438 56.949219 L 206.25 55.5 L 229.550781 32.101562 C 242.351562 19.25 253.550781 7.898438 254.398438 6.851562 C 256.050781 4.898438 256.449219 3.5 255.398438 3.5 C 255.101562 3.5 243.550781 14.75 229.800781 28.5 L 204.75 53.449219 L 203.648438 51.75 C 203 50.800781 202.5 49.851562 202.5 49.648438 C 202.5 49.449219 213.199219 38.601562 226.25 25.5 C 239.300781 12.398438 250 1.398438 250 1.101562 C 250 -0.148438 248.398438 0.601562 245.148438 3.449219 C 243.25 5.101562 232.550781 15.648438 221.300781 26.949219 L 200.800781 47.449219 L 199.648438 45.75 C 199 44.800781 198.5 43.898438 198.5 43.699219 C 198.5 43.449219 207.851562 33.949219 219.25 22.5 C 230.648438 11 240 1.398438 240 1.101562 C 240 -0.148438 238.398438 0.648438 235.148438 3.449219 C 233.25 5.101562 223.898438 14.300781 214.300781 23.949219 L 196.800781 41.449219 L 195.648438 39.75 C 195 38.800781 194.5 37.898438 194.5 37.699219 C 194.5 37.449219 202.5 29.300781 212.25 19.449219 C 222 9.648438 230 1.398438 230 1.050781 C 230 -1.351562 225.800781 2.351562 207.300781 20.949219 L 192.800781 35.449219 L 191.648438 33.75 C 191 32.800781 190.5 31.898438 190.5 31.699219 C 190.5 31.5 197.148438 24.648438 205.25 16.449219 C 213.351562 8.300781 220 1.351562 220 1.050781 C 220 -1.25 215.648438 2.449219 200.300781 17.898438 L 188.800781 29.449219 L 187.449219 27.601562 L 186.050781 25.75 L 198.050781 13.648438 C 204.601562 7.050781 210 1.351562 210 1.050781 C 210 -1.101562 205.550781 2.601562 193 15.199219 L 184.300781 24 L 182.648438 22.398438 L 181 20.800781 L 190.5 11.199219 C 195.75 5.898438 200 1.300781 200 1.050781 C 200 -1 195.449219 2.699219 185.300781 12.898438 L 178.851562 19.398438 L 177.050781 18.351562 C 176.050781 17.800781 175.148438 17.25 175.050781 17.148438 C 174.949219 17.101562 178.25 13.550781 182.398438 9.25 C 186.601562 5 190 1.300781 190 1 C 190 0.0507812 188.5 0.5 186.648438 2.101562 C 185.601562 2.949219 181.898438 6.449219 178.449219 9.851562 L 172.148438 16.050781 L 170.199219 15.148438 C 169.148438 14.699219 168.148438 14.199219 168.050781 14.148438 C 167.949219 14.101562 170.601562 11.199219 173.949219 7.75 C 177.25 4.300781 180 1.25 180 1 C 180 0.0507812 178.5 0.550781 176.648438 2.101562 C 175.601562 2.949219 172.601562 5.800781 169.949219 8.351562 L 165.148438 13.050781 L 163.199219 12.148438 C 162.148438 11.699219 161.148438 11.199219 161.050781 11.148438 C 160.949219 11.101562 162.898438 8.851562 165.449219 6.199219 C 167.949219 3.550781 170 1.199219 170 0.949219 C 170 0.0507812 168.449219 0.550781 166.648438 2.101562 C 165.601562 2.949219 163.25 5.101562 161.449219 6.851562 L 158.148438 10.050781 L 156.199219 9.148438 C 155.148438 8.699219 154.148438 8.25 154.050781 8.148438 C 153.949219 8.101562 155.25 6.5 156.949219 4.648438 C 160.148438 1.101562 160.5 0.5 159.25 0.5 C 158.550781 0.5 152.5 5.449219 151.050781 7.148438 C 150.550781 7.800781 149.550781 8 147.148438 8 L 143.898438 8 L 146.949219 4.648438 C 150.148438 1.101562 150.5 0.5 149.25 0.5 C 148.550781 0.5 142.5 5.449219 141.050781 7.148438 C 140.550781 7.800781 139.550781 8 137.148438 8 L 133.898438 8 L 136.949219 4.648438 C 140.148438 1.101562 140.5 0.5 139.25 0.5 C 138.550781 0.5 132.5 5.449219 131.050781 7.148438 C 130.550781 7.800781 129.550781 8 127.148438 8 L 123.898438 8 L 126.949219 4.648438 C 130.148438 1.101562 130.5 0.5 129.25 0.5 C 128.550781 0.5 122.5 5.449219 121.050781 7.148438 C 120.550781 7.800781 119.550781 8 117.148438 8 L 113.898438 8 L 116.949219 4.648438 C 120.148438 1.101562 120.5 0.5 119.25 0.5 C 118.550781 0.5 112.5 5.449219 111.050781 7.148438 C 110.550781 7.800781 109.550781 8 107.148438 8 L 103.898438 8 L 106.949219 4.648438 C 110.148438 1.101562 110.5 0.5 109.25 0.5 C 108.449219 0.5 106.050781 2.398438 101.648438 6.648438 C 99.148438 9.101562 97.601562 10.050781 93 12.050781 L 87.449219 14.449219 L 93.699219 7.949219 C 97.148438 4.398438 100 1.25 100 1 C 100 0.0507812 98.5 0.5 96.648438 2.101562 Z M 116 18.800781 C 116 20.351562 116.25 22.550781 116.601562 23.699219 C 117.398438 26.449219 121.550781 30.601562 124.300781 31.398438 C 129 32.800781 132.75 31.800781 136.25 28.25 C 139.101562 25.449219 140 23.148438 140 18.800781 L 140 16 L 148.148438 16 L 147.898438 20.449219 C 147.398438 28.550781 143.601562 34.398438 136.601562 37.898438 C 133 39.648438 132.550781 39.75 128 39.75 C 123.449219 39.75 123 39.648438 119.398438 37.898438 C 112.398438 34.398438 108.601562 28.550781 108.101562 20.449219 L 107.851562 16 L 116 16 Z M 51.25 65 L 52.199219 66.050781 L 40.148438 78.101562 L 28.101562 90.101562 L 27.050781 89.050781 C 26.5 88.5 25.5 88 24.898438 88 C 24 88 26.699219 85.101562 36.199219 75.550781 C 49.398438 62.351562 49.050781 62.601562 51.25 65 Z M 183.5 84.75 L 172.25 96 L 172.101562 92.898438 L 171.949219 89.851562 L 174.851562 86.898438 C 177.449219 84.300781 177.898438 84 179.800781 84 C 181.75 84 182.398438 83.601562 188.101562 78.800781 C 191.5 75.898438 194.351562 73.550781 194.5 73.550781 C 194.648438 73.5 189.699219 78.550781 183.5 84.75 Z M 68.5 79.5 C 68.5 79.648438 62.101562 86.148438 54.25 94 L 40 108.25 L 40 101.75 L 65.148438 76.601562 L 66.851562 77.898438 C 67.75 78.648438 68.5 79.351562 68.5 79.5 Z M 74.148438 94.101562 L 64.25 104 L 61 104 L 57.75 103.949219 L 70.75 91.148438 L 83.75 78.351562 L 83.898438 81.25 L 84.050781 84.199219 Z M 213.351562 83.398438 C 214.148438 83.949219 213.199219 85.050781 204.25 94 L 194.25 104 L 187.75 104 L 199.75 92 C 211.351562 80.398438 211.75 80.050781 212.101562 81.351562 C 212.300781 82.148438 212.851562 83.050781 213.351562 83.398438 Z M 79.148438 99.101562 L 74.25 104 L 67.75 104 L 83.75 88 L 83.898438 91.101562 L 84.050781 94.199219 Z M 206.148438 112.101562 L 188.25 130 L 188.101562 128 C 187.949219 126.199219 188.25 125.5 190.550781 122.351562 C 192 120.351562 200.050781 111.800781 208.449219 103.351562 L 223.75 87.949219 L 223.898438 91.101562 L 224.050781 94.199219 Z M 76.699219 115.75 C 78.25 117.800781 79.5 119.601562 79.5 119.75 C 79.5 119.898438 76.5 120 72.800781 120 L 66.101562 120 L 63.300781 116.25 C 61.75 114.199219 60.5 112.398438 60.5 112.25 C 60.5 112.101562 63.5 112 67.199219 112 L 73.898438 112 Z M 187.5 112.25 C 187.5 112.398438 186.25 114.199219 184.699219 116.25 L 181.898438 120 L 175.199219 120 C 171.5 120 168.5 119.898438 168.5 119.75 C 168.5 119.601562 169.75 117.800781 171.300781 115.75 L 174.101562 112 L 180.800781 112 C 184.5 112 187.5 112.101562 187.5 112.25 Z M 84 154.449219 L 84 180.898438 L 76.148438 178.300781 L 68.25 175.648438 L 68.101562 151.851562 L 68 128 L 84 128 Z M 180 142.800781 L 180 157.601562 L 178.898438 157.300781 C 172.601562 155.601562 162.851562 155.699219 156.5 157.5 C 151.449219 158.898438 145.300781 162 141.601562 165 L 138.550781 167.449219 L 117.648438 167.601562 C 99.351562 167.75 96.5 167.898438 94.550781 168.648438 C 93.351562 169.101562 92.300781 169.5 92.199219 169.5 C 92.101562 169.5 92 160.148438 92 148.75 L 92 128 L 180 128 Z M 54.648438 163.601562 L 49.199219 169.050781 L 46.300781 168.699219 L 43.398438 168.351562 L 59.75 152 L 59.898438 155.101562 L 60.050781 158.199219 Z M 58.398438 169.851562 C 56.699219 171.601562 56.300781 171.648438 53.199219 170.449219 L 51.800781 169.949219 L 55.800781 165.949219 L 59.75 161.949219 L 59.898438 165.050781 C 60.050781 167.949219 59.949219 168.25 58.398438 169.851562 Z M 177.75 165.550781 C 182.449219 167 186.25 168.949219 189.449219 171.601562 C 195.300781 176.398438 193.601562 176 207.550781 176 L 220 176 L 220 224 L 195.25 224 L 163.75 232.351562 C 134.648438 240.050781 131.851562 240.699219 127 240.898438 C 121.101562 241.101562 117.199219 240.351562 112.5 238.050781 C 110.949219 237.300781 93.699219 226.449219 74.101562 214 C 34.75 188.949219 36.25 190.101562 36.25 184.898438 C 36.25 181.75 37.199219 180.050781 40 178.101562 C 42.949219 176.101562 44.601562 176.449219 65.800781 183.5 C 84.199219 189.648438 85.449219 190.148438 86 191.449219 C 86.949219 193.75 90.449219 197.050781 93.449219 198.449219 L 96.25 199.75 L 118 199.898438 C 129.949219 200 140.25 199.898438 140.851562 199.75 C 143.75 199.050781 144.851562 195.699219 143 193.351562 L 141.949219 192.050781 L 119.851562 191.898438 C 97.800781 191.75 97.75 191.75 95.898438 190.601562 C 93.449219 189.050781 91.800781 185.648438 92.148438 182.898438 C 92.449219 180.648438 93.550781 178.851562 95.699219 177.300781 C 97 176.300781 97.851562 176.25 119.398438 176 C 131.699219 175.851562 141.800781 175.648438 141.851562 175.601562 C 141.898438 175.550781 143.351562 174.25 145.101562 172.75 C 149.800781 168.648438 156.101562 165.648438 162.398438 164.5 C 166.148438 163.800781 173.800781 164.300781 177.75 165.550781 Z M 177.75 165.550781 "/>
<path style=" stroke:none;fill-rule:nonzero;fill:rgb(0%,0%,0%);fill-opacity:1;" d="M 236.148438 232.101562 C 213.550781 254.601562 211.550781 256.851562 215.101562 255.699219 C 216.351562 255.351562 248.148438 224 253.050781 218.351562 C 255.851562 215.101562 256.648438 213.5 255.449219 213.5 C 255.101562 213.5 246.449219 221.898438 236.148438 232.101562 Z M 236.148438 232.101562 "/>
<path style=" stroke:none;fill-rule:nonzero;fill:rgb(0%,0%,0%);fill-opacity:1;" d="M 241.148438 237.101562 C 223.898438 254.199219 221.648438 256.800781 225.050781 255.75 C 226.300781 255.351562 248.449219 233.699219 253.050781 228.351562 C 255.851562 225.148438 256.648438 223.5 255.449219 223.5 C 255.148438 223.5 248.699219 229.648438 241.148438 237.101562 Z M 241.148438 237.101562 "/>
<path style=" stroke:none;fill-rule:nonzero;fill:rgb(0%,0%,0%);fill-opacity:1;" d="M 246.199219 242.101562 C 236.949219 251.199219 233.148438 255.351562 233.699219 255.851562 C 234.398438 256.550781 236.800781 254.699219 243.300781 248.398438 C 253.449219 238.550781 257.601562 233.5 255.5 233.5 C 255.199219 233.5 251 237.398438 246.199219 242.101562 Z M 246.199219 242.101562 "/>
</g>
</svg>
