<?xml version="1.0" standalone="no"?>
<!DOCTYPE svg PUBLIC "-//W3C//DTD SVG 20010904//EN"
 "http://www.w3.org/TR/2001/REC-SVG-20010904/DTD/svg10.dtd">
<svg version="1.0" xmlns="http://www.w3.org/2000/svg"
 width="512.000000pt" height="512.000000pt" viewBox="0 0 512.000000 512.000000"
 preserveAspectRatio="xMidYMid meet">
<metadata>
Created by potrace 1.16, written by Peter Selinger 2001-2019
</metadata>
<g transform="translate(0.000000,512.000000) scale(0.100000,-0.100000)"
fill="#000000" stroke="none">
<path d="M303 5052 c-86 -74 -272 -269 -286 -299 -33 -73 41 -14 241 191 78
80 142 151 142 156 0 23 -34 6 -97 -48z"/>
<path d="M503 5051 c-104 -90 -480 -475 -488 -500 -12 -37 2 -35 52 7 72 60
533 529 533 541 0 24 -33 8 -97 -48z"/>
<path d="M703 5051 c-112 -97 -680 -674 -687 -699 -23 -71 24 -29 442 391 188
189 342 349 342 356 0 24 -32 8 -97 -48z"/>
<path d="M903 5051 c-116 -100 -880 -875 -888 -899 -22 -72 19 -35 543 491
243 244 442 449 442 455 0 25 -32 10 -97 -47z"/>
<path d="M1103 5051 c-118 -102 -1080 -1075 -1088 -1099 -11 -38 2 -37 52 6
79 66 1133 1127 1133 1140 0 25 -32 10 -97 -47z"/>
<path d="M1303 5051 c-119 -104 -1280 -1275 -1288 -1299 -11 -38 2 -37 52 6
80 67 1333 1327 1333 1340 0 25 -32 10 -97 -47z"/>
<path d="M1503 5051 c-121 -105 -1480 -1475 -1488 -1499 -11 -38 2 -37 52 6
81 68 1533 1527 1533 1540 0 25 -32 10 -97 -47z"/>
<path d="M1703 5051 c-121 -105 -1680 -1675 -1688 -1699 -11 -38 2 -37 52 6
81 68 1733 1727 1733 1740 0 25 -32 10 -97 -47z"/>
<path d="M1933 5078 c-21 -17 -101 -93 -178 -168 -77 -75 -161 -149 -188 -164
-72 -41 -168 -137 -235 -234 -47 -68 -187 -213 -632 -657 -315 -313 -598 -600
-631 -638 -57 -65 -72 -97 -47 -97 6 0 259 246 561 548 l549 547 -86 -130
c-47 -71 -86 -139 -86 -150 0 -13 -144 -163 -416 -435 -426 -425 -534 -539
-534 -565 0 -25 12 -18 83 46 l67 61 0 -65 c0 -48 -4 -68 -17 -78 -34 -29
-133 -150 -133 -164 0 -26 15 -17 103 65 78 73 89 80 126 80 55 0 81 26 81 83
0 39 5 48 58 100 52 51 62 57 100 57 56 0 82 26 82 83 0 42 1 43 263 305 l262
262 35 -29 35 -30 -541 -543 c-297 -299 -555 -560 -572 -581 -33 -39 -41 -67
-20 -67 6 0 273 261 592 579 l581 580 35 -29 35 -29 -250 -251 c-248 -248
-250 -250 -292 -250 -58 0 -83 -25 -83 -83 0 -39 -5 -48 -58 -100 -52 -51 -62
-57 -100 -57 -56 0 -82 -26 -82 -83 0 -41 -4 -46 -136 -177 -210 -209 -284
-300 -244 -300 6 0 94 81 195 181 l183 181 21 -21 c12 -12 31 -21 43 -21 18 0
-24 -47 -183 -207 -113 -115 -220 -225 -237 -246 -33 -39 -41 -67 -20 -67 6 0
323 310 702 689 l691 690 34 -31 34 -30 -199 -199 c-196 -196 -199 -199 -241
-199 -57 0 -83 -25 -83 -83 l0 -42 -416 -415 c-229 -228 -442 -445 -475 -483
-57 -65 -72 -97 -47 -97 6 0 228 216 492 479 l481 480 27 -38 27 -37 -461
-460 c-253 -252 -486 -489 -519 -527 -57 -65 -72 -97 -47 -97 6 0 247 235 535
522 497 497 524 521 538 503 44 -57 78 -17 -492 -589 -291 -292 -544 -548
-561 -569 -33 -39 -41 -67 -20 -67 6 0 267 255 578 566 l567 565 16 -25 c10
-14 17 -36 17 -48 0 -17 -140 -163 -536 -558 -295 -294 -562 -565 -595 -603
-57 -65 -72 -97 -47 -97 6 0 274 262 595 582 l583 582 0 -64 0 -65 -536 -535
c-295 -294 -562 -565 -595 -603 -57 -65 -72 -97 -47 -97 6 0 274 262 595 582
l583 582 0 -64 0 -65 -213 -212 c-120 -120 -228 -218 -248 -228 -59 -26 -113
-79 -147 -142 -23 -43 -87 -113 -247 -273 -294 -292 -369 -380 -324 -380 6 0
129 117 274 261 l263 261 4 -61 3 -61 -218 -218 c-297 -295 -371 -382 -326
-382 6 0 136 123 288 274 l276 274 26 -38 27 -37 -255 -254 c-335 -334 -409
-419 -362 -419 6 0 156 144 333 319 l321 319 38 -26 38 -26 -339 -340 c-186
-188 -353 -358 -370 -379 -33 -38 -41 -67 -21 -67 7 0 184 171 393 380 l382
380 38 -26 38 -26 -399 -402 c-220 -220 -414 -418 -431 -439 -33 -38 -41 -67
-20 -67 6 0 210 199 454 441 l442 441 34 -23 c18 -12 35 -24 37 -26 3 -2 -203
-212 -457 -467 -254 -254 -462 -468 -462 -474 0 -21 29 -13 67 20 21 17 232
225 469 461 l431 429 41 -23 41 -24 -424 -426 c-234 -234 -425 -431 -425 -437
0 -25 32 -9 97 47 38 33 230 222 428 420 198 199 363 361 367 361 4 0 23 -10
43 -21 l36 -22 -385 -387 c-212 -213 -386 -392 -386 -399 0 -20 29 -12 67 21
21 17 198 190 393 384 l355 352 39 -25 38 -25 -346 -347 c-190 -192 -346 -353
-346 -360 0 -47 84 26 449 392 282 283 285 286 310 272 14 -8 33 -19 41 -24
12 -8 -47 -72 -293 -319 -169 -170 -307 -315 -307 -321 0 -20 29 -11 67 21 21
17 162 155 315 306 l276 275 36 -22 c20 -13 36 -25 36 -29 0 -3 -119 -126
-265 -273 -146 -147 -265 -272 -265 -278 0 -45 88 29 370 313 113 113 208 206
213 206 4 0 23 -10 41 -22 l35 -23 -230 -232 c-126 -127 -229 -236 -229 -242
0 -43 89 31 334 277 l169 170 39 -25 38 -26 -190 -193 c-104 -106 -190 -198
-190 -203 0 -20 29 -11 67 21 21 17 110 103 198 190 l160 158 38 -26 38 -26
-150 -154 c-83 -84 -151 -158 -151 -164 0 -19 30 -10 67 22 21 17 93 85 160
151 l121 120 34 -23 c18 -13 35 -25 37 -26 2 -2 -46 -56 -108 -119 -61 -64
-111 -120 -111 -126 0 -18 30 -8 67 23 21 17 75 67 120 111 l81 80 45 -19 45
-18 -79 -85 c-81 -86 -90 -101 -64 -101 14 0 128 93 173 143 24 26 23 26 110
1 9 -3 -7 -27 -42 -66 -31 -35 -56 -66 -56 -70 0 -22 38 -1 105 57 74 65 74
65 135 65 l61 0 -52 -60 c-87 -100 -40 -94 73 9 60 55 75 64 144 81 42 11 79
20 81 20 3 0 -29 -37 -71 -82 -78 -83 -87 -98 -61 -98 17 0 64 39 165 136 69
67 81 75 150 93 41 12 79 21 83 21 5 0 -41 -52 -102 -116 -61 -63 -111 -119
-111 -125 0 -18 30 -8 67 23 21 17 88 80 148 140 l111 108 87 24 87 23 -150
-154 c-83 -84 -150 -157 -150 -163 0 -19 30 -10 67 22 21 17 103 96 184 175
l145 144 88 24 88 24 -186 -189 c-102 -104 -186 -194 -186 -199 0 -20 29 -11
67 21 21 17 121 113 223 214 l185 181 83 21 83 20 -220 -223 c-122 -123 -221
-228 -221 -234 0 -44 89 31 345 288 l180 181 64 0 64 0 -226 -229 c-125 -126
-227 -234 -227 -240 0 -44 89 31 345 288 l180 181 64 0 64 0 -226 -229 c-125
-126 -227 -234 -227 -240 0 -20 29 -11 67 21 21 17 133 125 248 239 l210 208
67 3 67 3 -230 -232 c-126 -127 -229 -236 -229 -242 0 -20 29 -11 67 21 61 51
859 847 924 921 56 64 72 97 48 97 -6 0 -133 -121 -283 -269 l-271 -270 3 67
3 67 248 250 c136 138 262 267 279 288 32 38 41 67 21 67 -6 0 -132 -120 -280
-267 l-269 -267 0 65 0 64 221 220 c299 298 373 385 328 385 -6 0 -132 -120
-280 -267 l-269 -267 0 65 0 64 221 220 c299 298 373 385 328 385 -6 0 -132
-120 -280 -267 l-269 -267 0 65 0 64 221 220 c299 298 373 385 328 385 -6 0
-132 -120 -280 -267 l-269 -267 0 65 0 64 221 220 c299 298 373 385 328 385
-6 0 -132 -120 -280 -267 l-269 -267 0 65 0 64 221 220 c299 298 373 385 328
385 -6 0 -131 -119 -278 -265 -263 -261 -268 -265 -286 -245 -10 11 -27 22
-38 26 -16 5 26 52 265 293 156 157 299 303 316 324 33 38 41 67 21 67 -7 0
-165 -153 -353 -340 l-342 -340 -65 0 -64 0 386 388 c212 213 400 404 417 425
33 38 41 67 20 67 -6 0 -210 -198 -453 -440 l-441 -440 -64 0 -65 0 486 488
c267 268 500 504 517 525 33 39 41 67 20 67 -6 0 -255 -243 -553 -540 -478
-478 -544 -540 -571 -540 -17 0 -38 8 -47 18 -15 17 15 49 524 557 298 297
567 570 600 608 57 65 72 97 47 97 -6 0 -284 -272 -618 -605 -333 -333 -609
-605 -613 -605 -5 0 -23 10 -42 23 l-34 23 600 600 c331 329 627 629 660 667
57 65 72 97 47 97 -6 0 -312 -300 -680 -667 l-668 -667 0 64 0 65 621 620
c341 341 647 650 680 688 57 65 72 97 47 97 -6 0 -312 -300 -680 -667 l-668
-667 0 64 0 65 621 620 c341 341 647 650 680 688 57 65 72 97 47 97 -6 0 -312
-300 -680 -667 l-668 -667 0 64 0 65 378 378 377 377 43 0 c57 0 82 26 82 83
0 39 5 48 58 100 52 51 62 57 100 57 57 0 82 26 82 83 0 39 5 48 61 102 130
128 204 225 170 225 -5 0 -59 -48 -120 -106 l-110 -105 -20 20 c-12 12 -31 21
-43 21 -18 0 4 28 108 133 72 72 145 149 162 170 33 39 41 67 20 67 -6 0 -258
-246 -560 -547 -407 -407 -548 -542 -548 -525 0 12 -10 32 -21 43 l-21 21 545
547 c300 300 562 566 581 589 36 44 46 72 25 72 -6 0 -114 -102 -240 -227
l-229 -226 0 37 c0 21 -4 45 -9 55 -8 14 23 50 181 207 267 266 341 354 297
354 -6 0 -131 -119 -278 -265 -186 -184 -274 -265 -289 -265 -29 0 -62 -34
-62 -63 0 -31 -147 -177 -178 -177 -28 0 -62 -34 -62 -63 0 -16 -78 -100 -278
-300 l-277 -277 -65 0 -65 0 751 753 c413 413 765 769 782 790 33 39 41 67 20
67 -7 0 -375 -362 -818 -805 -584 -584 -812 -805 -828 -805 -19 0 -22 5 -22
43 l0 42 781 780 c429 429 807 810 840 848 57 65 72 97 47 97 -6 0 -222 -210
-480 -467 -285 -284 -468 -460 -468 -449 0 10 -8 31 -17 47 l-18 29 466 468
c256 257 480 484 497 505 33 39 41 67 20 67 -6 0 -237 -225 -512 -500 l-501
-499 -22 34 c-13 19 -23 38 -23 42 0 4 214 221 475 483 261 262 475 482 475
488 0 25 -32 10 -97 -47 -38 -33 -252 -244 -477 -470 l-410 -410 -23 34 c-13
19 -23 37 -23 41 0 5 187 195 415 424 228 230 415 422 415 428 0 25 -32 9 -97
-47 -38 -33 -225 -217 -417 -410 l-350 -350 -23 34 c-13 19 -23 37 -23 41 0 5
160 168 355 365 195 196 355 361 355 368 0 48 -84 -26 -454 -398 l-290 -290
-23 34 c-13 19 -23 37 -23 41 0 4 133 141 295 305 162 163 295 302 295 308 0
46 -87 -28 -394 -337 l-230 -231 -27 37 -28 37 240 242 c131 132 239 246 239
252 0 43 -89 -31 -340 -283 l-174 -176 -33 32 -33 32 190 192 c105 106 190
198 190 203 0 41 -91 -33 -294 -237 l-129 -130 -36 21 c-20 11 -38 22 -40 24
-2 1 64 72 147 158 84 85 152 159 152 165 0 19 -30 10 -67 -22 -21 -17 -95
-87 -164 -155 l-126 -124 -39 18 c-21 9 -41 19 -43 20 -2 1 51 59 118 128 66
69 121 130 121 135 0 19 -30 9 -67 -22 -21 -17 -81 -74 -134 -125 l-96 -94
-39 18 c-21 9 -41 19 -43 20 -2 1 37 46 88 99 50 53 91 100 91 105 0 18 -31 8
-67 -23 -21 -17 -68 -60 -104 -95 l-66 -64 -39 18 c-21 9 -41 18 -43 20 -2 1
24 33 58 70 64 71 71 83 46 83 -14 0 -135 -99 -164 -133 -10 -13 -30 -17 -78
-17 l-65 0 61 67 c64 71 71 83 46 83 -14 0 -135 -99 -164 -133 -10 -13 -30
-17 -78 -17 l-65 0 61 67 c64 71 71 83 46 83 -14 0 -135 -99 -164 -133 -10
-13 -30 -17 -78 -17 l-65 0 61 67 c64 71 71 83 46 83 -14 0 -135 -99 -164
-133 -10 -13 -30 -17 -78 -17 l-65 0 61 67 c64 71 71 83 46 83 -14 0 -135 -99
-164 -133 -10 -13 -30 -17 -78 -17 l-65 0 61 67 c64 71 71 83 46 83 -16 0 -64
-38 -152 -123 -50 -49 -81 -68 -173 -108 l-111 -48 125 130 c69 71 126 134
126 139 0 19 -30 10 -67 -22z m387 -334 c0 -31 5 -75 12 -98 16 -55 99 -138
154 -154 94 -28 169 -8 239 63 57 56 75 102 75 189 l0 56 81 0 82 0 -5 -89
c-10 -162 -86 -279 -226 -349 -72 -35 -81 -37 -172 -37 -91 0 -100 2 -172 37
-140 70 -216 187 -226 349 l-5 89 82 0 81 0 0 -56z m-1295 -924 l19 -21 -241
-241 -241 -240 -21 21 c-11 11 -31 21 -43 21 -18 0 36 58 226 249 264 264 257
259 301 211z m2645 -395 l-225 -225 -3 62 -3 61 58 59 c52 52 61 58 99 58 39
0 52 8 166 104 68 58 125 105 128 105 3 1 -96 -100 -220 -224z m-2300 105 c0
-3 -128 -133 -285 -290 l-285 -285 0 65 0 65 252 252 251 251 34 -26 c18 -15
33 -29 33 -32z m113 -292 l-198 -198 -65 0 -65 1 260 256 260 256 3 -58 3 -59
-198 -198z m2784 214 c16 -11 -3 -33 -182 -212 l-200 -200 -65 0 -65 0 240
240 c232 232 240 239 247 213 4 -16 15 -34 25 -41z m-2684 -314 l-98 -98 -65
0 -65 0 160 160 160 160 3 -62 3 -62 -98 -98z m2540 -260 l-358 -358 -3 40
c-3 36 3 50 49 113 29 40 190 211 358 380 l306 308 3 -63 3 -62 -358 -358z
m-2589 -73 c31 -41 56 -77 56 -80 0 -3 -60 -5 -134 -5 l-134 0 -56 75 c-31 41
-56 77 -56 80 0 3 60 5 134 5 l134 0 56 -75z m2216 70 c0 -3 -25 -39 -56 -80
l-56 -75 -134 0 c-74 0 -134 2 -134 5 0 3 25 39 56 80 l56 75 134 0 c74 0 134
-2 134 -5z m-2070 -844 l0 -529 -157 52 -158 53 -3 476 -2 477 160 0 160 0 0
-529z m1920 233 l0 -296 -22 6 c-126 34 -321 32 -448 -4 -101 -28 -224 -90
-298 -150 l-61 -49 -418 -3 c-366 -3 -423 -6 -462 -21 -24 -9 -45 -17 -47 -17
-2 0 -4 187 -4 415 l0 415 880 0 880 0 0 -296z m-2507 -416 l-109 -109 -58 7
-58 7 164 164 163 163 3 -62 3 -62 -108 -108z m75 -125 c-34 -35 -42 -36 -104
-12 l-28 10 80 80 79 80 3 -62 c3 -58 1 -64 -30 -96z m2387 86 c94 -29 170
-68 234 -121 117 -96 83 -88 362 -88 l249 0 0 -480 0 -480 -247 0 -248 0 -630
-167 c-582 -154 -638 -167 -735 -171 -118 -4 -196 11 -290 57 -31 15 -376 232
-768 481 -787 501 -757 478 -757 582 0 63 19 97 75 136 59 40 92 33 516 -108
368 -123 393 -133 404 -159 19 -46 89 -112 149 -140 l56 -26 435 -3 c239 -2
445 0 457 3 58 14 80 81 43 128 l-21 26 -442 3 c-441 3 -442 3 -479 26 -49 31
-82 99 -75 154 6 45 28 81 71 112 26 20 43 21 474 26 246 3 448 7 449 8 1 1
30 27 65 57 94 82 220 142 346 165 75 14 228 4 307 -21z"/>
<path d="M4723 478 c-452 -450 -492 -495 -421 -472 25 7 661 634 759 747 56
65 72 97 48 97 -7 0 -180 -168 -386 -372z"/>
<path d="M4823 378 c-345 -342 -390 -394 -322 -373 25 8 468 441 560 548 56
64 72 97 48 97 -6 0 -135 -123 -286 -272z"/>
<path d="M4924 278 c-185 -182 -261 -265 -250 -275 14 -14 62 23 192 149 203
197 286 298 244 298 -6 0 -90 -78 -186 -172z"/>
</g>
</svg>
