<?xml version="1.0" encoding="UTF-8"?>
<svg xmlns="http://www.w3.org/2000/svg" xmlns:xlink="http://www.w3.org/1999/xlink" width="34pt" height="40pt" viewBox="0 0 34 40" version="1.1">
<g id="surface1">
<path style=" stroke:none;fill-rule:nonzero;fill:rgb(0%,0%,0%);fill-opacity:1;" d="M 18.839844 2.402344 C 18.839844 4.007812 18.832031 4.808594 18.808594 4.820312 C 18.789062 4.824219 18.816406 4.941406 18.875 5.09375 C 19.277344 6.195312 19.460938 7.144531 19.683594 9.296875 C 19.855469 10.914062 19.894531 11.269531 19.984375 11.859375 C 20.050781 12.328125 20.058594 12.492188 20.09375 14.609375 C 20.109375 15.847656 20.140625 17.773438 20.15625 18.890625 C 20.171875 20.007812 20.199219 21.871094 20.21875 23.03125 C 20.234375 24.191406 20.265625 26.0625 20.28125 27.1875 C 20.296875 28.3125 20.324219 30.195312 20.34375 31.375 C 20.402344 35.402344 20.4375 37.515625 20.457031 38.757812 L 20.476562 40 L 20.558594 39.980469 C 21.332031 39.800781 22.074219 39.398438 22.597656 38.875 C 23.109375 38.363281 23.371094 37.957031 23.992188 36.691406 C 24.480469 35.695312 24.71875 35.273438 24.992188 34.902344 C 25.394531 34.367188 25.949219 33.917969 26.523438 33.679688 C 26.742188 33.589844 26.800781 33.554688 26.796875 33.507812 C 26.761719 33.210938 26.65625 32.179688 26.621094 31.71875 C 26.203125 26.664062 26.53125 21.296875 27.710938 13.859375 C 27.914062 12.609375 28.46875 9.339844 28.484375 9.328125 C 28.492188 9.324219 29.058594 10.105469 29.746094 11.066406 C 30.914062 12.695312 31 12.804688 31.046875 12.757812 C 31.078125 12.726562 31.75 11.800781 32.542969 10.695312 L 33.988281 8.6875 L 33.695312 8.320312 C 33.363281 7.898438 32.875 7.246094 31.9375 5.96875 C 31.277344 5.066406 30.75 4.375 30.371094 3.921875 C 29.394531 2.742188 28.417969 1.851562 27.40625 1.195312 C 27.191406 1.054688 27.113281 1.023438 26.703125 0.925781 C 25.511719 0.644531 24.734375 0.558594 23.324219 0.558594 L 22.375 0.5625 L 21.460938 0.375 C 20.101562 0.101562 19.4375 0 18.976562 0 L 18.839844 0 Z M 18.839844 2.402344 "/>
<path style=" stroke:none;fill-rule:nonzero;fill:rgb(0%,0%,0%);fill-opacity:1;" d="M 11.703125 1.046875 C 11.558594 1.105469 11.050781 1.304688 10.578125 1.484375 C 10.105469 1.667969 9.515625 1.902344 9.261719 2.007812 C 8.839844 2.179688 8.765625 2.203125 8.105469 2.316406 C 7.71875 2.382812 7.183594 2.480469 6.917969 2.53125 C 4.984375 2.910156 3.753906 3.414062 2.832031 4.207031 C 2.699219 4.320312 2.628906 4.425781 2.449219 4.773438 C 1.730469 6.164062 1.3125 7.535156 0.8125 10.125 C 0.511719 11.707031 0.28125 12.804688 0.140625 13.359375 L 0 13.914062 L 0.183594 14.417969 C 0.289062 14.695312 0.398438 15.011719 0.433594 15.125 C 0.464844 15.238281 0.609375 15.695312 0.746094 16.140625 C 1.1875 17.546875 1.488281 18.378906 1.816406 19.09375 C 1.992188 19.484375 2.285156 20.03125 2.3125 20.03125 C 2.324219 20.03125 2.351562 19.957031 2.371094 19.867188 C 2.390625 19.777344 2.496094 19.53125 2.601562 19.320312 C 2.984375 18.542969 3.410156 17.976562 4.976562 16.140625 C 5.722656 15.265625 6.097656 14.777344 6.429688 14.265625 C 6.621094 13.972656 6.917969 13.398438 6.917969 13.320312 C 6.917969 13.230469 6.949219 13.300781 6.976562 13.457031 C 7.160156 14.425781 7.398438 16.539062 7.515625 18.21875 C 7.597656 19.449219 7.632812 22.523438 7.578125 23.828125 C 7.40625 27.757812 6.898438 31.660156 5.984375 36.023438 C 5.902344 36.40625 5.875 36.601562 5.894531 36.613281 C 5.914062 36.617188 6.523438 36.835938 7.246094 37.097656 C 9.070312 37.753906 9.53125 37.914062 10.234375 38.128906 C 12.078125 38.695312 13.355469 38.921875 14.726562 38.917969 C 15.421875 38.914062 16.078125 38.851562 16.464844 38.75 L 16.578125 38.71875 L 16.597656 37.929688 C 16.625 37.035156 16.664062 35.398438 16.710938 33.515625 C 16.730469 32.808594 16.757812 31.695312 16.773438 31.03125 C 16.832031 28.761719 16.875 27.140625 16.960938 23.59375 C 16.980469 22.898438 17.007812 21.789062 17.023438 21.125 C 17.039062 20.460938 17.070312 19.351562 17.085938 18.65625 C 17.105469 17.960938 17.132812 16.855469 17.148438 16.203125 C 17.164062 15.550781 17.195312 14.382812 17.210938 13.609375 C 17.273438 11.210938 17.292969 10.875 17.449219 9.53125 C 17.527344 8.851562 17.699219 7.328125 17.839844 6.148438 L 18.085938 3.992188 L 18.203125 3.890625 L 18.324219 3.785156 L 18.222656 3.78125 C 18.171875 3.78125 18.121094 3.765625 18.113281 3.746094 C 18.105469 3.722656 18.082031 3.71875 18.042969 3.742188 C 17.910156 3.804688 16.789062 3.679688 16.183594 3.53125 C 15.066406 3.257812 14.027344 2.640625 12.457031 1.3125 C 12.214844 1.105469 12.003906 0.9375 11.992188 0.9375 C 11.980469 0.941406 11.851562 0.988281 11.703125 1.046875 Z M 11.703125 1.046875 "/>
</g>
</svg>
